<svg width="108" height="100" viewBox="0 0 108 100" fill="none" xmlns="http://www.w3.org/2000/svg">
<path d="M54 100C83.8234 100 108 77.6142 108 50C108 22.3858 83.8234 0 54 0C24.1766 0 0 22.3858 0 50C0 77.6142 24.1766 100 54 100Z" fill="#FFBD12"/>
<path fill-rule="evenodd" clip-rule="evenodd" d="M26.0406 77.6467C33.3349 84.4007 42.5228 87.778 53.6044 87.778C60.3376 87.778 66.5097 86.3493 72.1209 83.4913C77.8017 80.5693 82.2556 76.608 85.4819 71.6073L69.1749 62.8402C67.7721 65.3079 65.668 67.256 62.8625 68.6847C60.1271 70.0487 57.0411 70.7307 53.6044 70.7307C47.7129 70.7307 42.9436 69.042 39.2965 65.6651C35.7195 62.2233 33.931 57.7423 33.931 52.2222C33.931 46.7022 35.7195 42.2537 39.2965 38.8767C42.9436 35.4348 47.7129 33.7139 53.6044 33.7139C57.0411 33.7139 60.1271 34.4282 62.8625 35.8569C65.668 37.2207 67.7721 39.104 69.1749 41.5069L85.4819 32.8371C82.2556 27.9016 77.8017 23.9726 72.1209 21.0502C66.4395 18.1279 60.2675 16.6667 53.6044 16.6667C42.5228 16.6667 33.3349 20.0761 26.0406 26.895C18.8165 33.6489 15.2045 42.0913 15.2045 52.2222C15.2045 62.3531 18.8165 70.828 26.0406 77.6467ZM84.0002 60C88.6391 60 92.3997 56.5178 92.3997 52.2222C92.3997 47.9267 88.6391 44.4445 84.0002 44.4445C79.3605 44.4445 75.5999 47.9267 75.5999 52.2222C75.5999 56.5178 79.3605 60 84.0002 60Z" fill="#18191F"/>
<path fill-rule="evenodd" clip-rule="evenodd" d="M64.0097 70.6367L64.0004 70.6413C60.8793 72.1973 57.3953 72.9527 53.6044 72.9527C47.1748 72.9527 41.7617 71.0907 37.5994 67.2367L37.5831 67.2213L37.5671 67.206C33.4928 63.2855 31.531 58.2206 31.531 52.2222C31.531 46.2249 33.4928 41.1823 37.583 37.3207C41.7424 33.3954 47.161 31.4916 53.6044 31.4916C57.4015 31.4916 60.8896 32.282 64.0101 33.9049C66.4233 35.083 68.4195 36.624 69.959 38.5274L82.0778 32.0843C79.2251 28.374 75.5287 25.3453 70.9551 22.9928C65.6397 20.2586 59.8703 18.8889 53.6044 18.8889C43.1142 18.8889 34.5558 22.0925 27.7458 28.4588C20.9981 34.7673 17.6044 42.6343 17.6044 52.2222C17.6044 61.8063 20.9959 69.708 27.7457 76.0827C34.5529 82.382 43.1112 85.5553 53.6044 85.5553C59.9528 85.5553 65.7222 84.2127 70.9591 81.5467C75.5395 79.19 79.2424 76.13 82.0987 72.358L69.9786 65.842C68.4409 67.8 66.4425 69.398 64.0191 70.632L64.0097 70.6367ZM68.5398 63.8529C67.1649 65.8469 65.2725 67.4573 62.8625 68.6847C60.1271 70.0487 57.0411 70.7307 53.6044 70.7307C47.7129 70.7307 42.9436 69.042 39.2965 65.6651C35.7195 62.2233 33.931 57.7423 33.931 52.2222C33.931 46.7022 35.7195 42.2537 39.2965 38.8767C42.9436 35.4348 47.7129 33.7139 53.6044 33.7139C57.0411 33.7139 60.1271 34.4282 62.8625 35.8569C65.4286 37.1043 67.4079 38.7864 68.8005 40.9031C68.9304 41.1006 69.0551 41.3018 69.1749 41.5069L85.4819 32.8371C85.0643 32.1989 84.6266 31.5775 84.1687 30.9729C81.0827 26.9022 77.0673 23.5947 72.1209 21.0502C66.4395 18.1279 60.2675 16.6667 53.6044 16.6667C42.5228 16.6667 33.3349 20.0761 26.0406 26.895C18.8165 33.6489 15.2045 42.0913 15.2045 52.2222C15.2045 62.3531 18.8165 70.828 26.0406 77.6467C33.3349 84.4007 42.5228 87.778 53.6044 87.778C60.3376 87.778 66.5097 86.3493 72.1209 83.4913C77.0738 80.9433 81.0943 77.606 84.1816 73.478C84.6352 72.8713 85.0687 72.248 85.4819 71.6073L69.1749 62.8402C68.9771 63.1881 68.7654 63.5257 68.5398 63.8529ZM84.0002 57.7778C87.3136 57.7778 89.9999 55.2905 89.9999 52.2222C89.9999 49.154 87.3136 46.6667 84.0002 46.6667C80.686 46.6667 77.9997 49.154 77.9997 52.2222C77.9997 55.2905 80.686 57.7778 84.0002 57.7778ZM92.3997 52.2222C92.3997 56.5178 88.6391 60 84.0002 60C79.3605 60 75.5999 56.5178 75.5999 52.2222C75.5999 47.9267 79.3605 44.4445 84.0002 44.4445C88.6391 44.4445 92.3997 47.9267 92.3997 52.2222Z" fill="#18191F"/>
<path fill-rule="evenodd" clip-rule="evenodd" d="M26.0406 75.4247C33.3349 82.1787 42.5228 85.5553 53.6044 85.5553C60.3376 85.5553 66.5097 84.1267 72.1209 81.2693C77.8017 78.3473 82.2556 74.3853 85.4819 69.3853L69.1749 60.6179C67.7721 63.0857 65.668 65.034 62.8625 66.4627C60.1271 67.8267 57.0411 68.5087 53.6044 68.5087C47.7129 68.5087 42.9436 66.82 39.2965 63.4429C35.7195 60.001 33.931 55.5201 33.931 50C33.931 44.4799 35.7195 40.0315 39.2965 36.6545C42.9436 33.2126 47.7129 31.4916 53.6044 31.4916C57.0411 31.4916 60.1271 32.206 62.8625 33.6347C65.668 34.9985 67.7721 36.8818 69.1749 39.2846L85.4819 30.6149C82.2556 25.6793 77.8017 21.7504 72.1209 18.828C66.4395 15.9056 60.2675 14.4445 53.6044 14.4445C42.5228 14.4445 33.3349 17.8539 26.0406 24.6727C18.8165 31.4267 15.2045 39.8691 15.2045 50C15.2045 60.1309 18.8165 68.606 26.0406 75.4247ZM84.0002 57.7778C88.6391 57.7778 92.3997 54.2955 92.3997 50C92.3997 45.7045 88.6391 42.2222 84.0002 42.2222C79.3605 42.2222 75.5999 45.7045 75.5999 50C75.5999 54.2955 79.3605 57.7778 84.0002 57.7778Z" fill="white"/>
<path fill-rule="evenodd" clip-rule="evenodd" d="M64.0097 68.4147L64.0004 68.4193C60.8793 69.9753 57.3953 70.7307 53.6044 70.7307C47.1748 70.7307 41.7617 68.868 37.5994 65.0143L37.5831 64.9991L37.5671 64.9837C33.4928 61.0633 31.531 55.9983 31.531 50C31.531 44.0027 33.4928 38.96 37.583 35.0985C41.7424 31.1731 47.161 29.2694 53.6044 29.2694C57.4015 29.2694 60.8896 30.0598 64.0101 31.6827C66.4233 32.8608 68.4195 34.4017 69.959 36.3052L82.0778 29.8621C79.2251 26.1517 75.5287 23.1231 70.9551 20.7706C65.6397 18.0364 59.8703 16.6667 53.6044 16.6667C43.1142 16.6667 34.5558 19.8703 27.7458 26.2365C20.9981 32.5451 17.6044 40.4121 17.6044 50C17.6044 59.5841 20.9959 67.486 27.7457 73.8607C34.5529 80.16 43.1112 83.3333 53.6044 83.3333C59.9528 83.3333 65.7222 81.9907 70.9591 79.3247C75.5395 76.968 79.2424 73.908 82.0987 70.136L69.9786 63.6197C68.4409 65.578 66.4425 67.176 64.0191 68.41L64.0097 68.4147ZM68.5398 61.6307C67.1649 63.6247 65.2725 65.2354 62.8625 66.4627C60.1271 67.8267 57.0411 68.5087 53.6044 68.5087C47.7129 68.5087 42.9436 66.82 39.2965 63.4429C35.7195 60.001 33.931 55.5201 33.931 50C33.931 44.4799 35.7195 40.0315 39.2965 36.6545C42.9436 33.2126 47.7129 31.4916 53.6044 31.4916C57.0411 31.4916 60.1271 32.206 62.8625 33.6347C65.4286 34.8821 67.4079 36.5642 68.8005 38.6809C68.9304 38.8783 69.0551 39.0796 69.1749 39.2846L85.4819 30.6149C85.0643 29.9767 84.6266 29.3552 84.1687 28.7506C81.0827 24.68 77.0673 21.3725 72.1209 18.828C66.4395 15.9056 60.2675 14.4445 53.6044 14.4445C42.5228 14.4445 33.3349 17.8539 26.0406 24.6727C18.8165 31.4267 15.2045 39.8691 15.2045 50C15.2045 60.1309 18.8165 68.606 26.0406 75.4247C33.3349 82.1787 42.5228 85.5553 53.6044 85.5553C60.3376 85.5553 66.5097 84.1267 72.1209 81.2693C77.0738 78.7213 81.0943 75.3833 84.1816 71.2553C84.6352 70.6493 85.0687 70.0253 85.4819 69.3853L69.1749 60.6179C68.9771 60.9659 68.7654 61.3034 68.5398 61.6307ZM84.0002 55.5555C87.3136 55.5555 89.9999 53.0683 89.9999 50C89.9999 46.9317 87.3136 44.4445 84.0002 44.4445C80.686 44.4445 77.9997 46.9317 77.9997 50C77.9997 53.0683 80.686 55.5555 84.0002 55.5555ZM92.3997 50C92.3997 54.2955 88.6391 57.7778 84.0002 57.7778C79.3605 57.7778 75.5999 54.2955 75.5999 50C75.5999 45.7045 79.3605 42.2222 84.0002 42.2222C88.6391 42.2222 92.3997 45.7045 92.3997 50Z" fill="#18191F"/>
</svg>
