<svg width="490" height="456" viewBox="0 0 490 456" fill="none" xmlns="http://www.w3.org/2000/svg">
<path fill-rule="evenodd" clip-rule="evenodd" d="M72.0904 188.64C77.6725 184.396 80.4075 177.494 82.4929 176.307C84.0275 175.435 83.958 169.487 87.0311 167.36C91.1549 164.506 104.344 162.313 109.145 161.887C113.754 161.478 121.779 162.214 126.117 163.922C133.351 166.77 136.267 172.279 139.494 179.38C139.494 179.38 68.2552 191.555 72.0904 188.64Z" fill="#EDB98A"/>
<path fill-rule="evenodd" clip-rule="evenodd" d="M176.776 192.825L62.7519 193.617L23.5356 230.033L7.07306 382.065L32.0448 389.879L186.015 391.458L233.999 377.131L236.264 271.368L176.776 192.825Z" fill="#78E185"/>
<path fill-rule="evenodd" clip-rule="evenodd" d="M22.9141 354.357C23.7057 353.943 24.5304 353.471 25.4373 353.432C26.9947 353.365 26.9795 350.87 25.4199 350.937C24.0597 350.996 22.8688 351.588 21.6758 352.211C20.2838 352.939 21.5276 355.082 22.9141 354.357ZM24.9558 284.114C23.8927 284.122 22.8221 284.268 22.0109 285.039C21.5288 285.497 21.5731 286.346 22.0232 286.803C22.505 287.291 23.2567 287.248 23.7374 286.791C23.5805 286.94 23.7359 286.792 23.7929 286.759C23.8065 286.752 23.814 286.746 23.8176 286.743C23.8297 286.74 23.8418 286.737 23.8615 286.732C23.9879 286.698 24.1128 286.665 24.2408 286.64C24.2429 286.647 24.5112 286.62 24.5742 286.617C24.7075 286.611 24.8401 286.61 24.9732 286.609C25.6306 286.604 26.181 286.03 26.1763 285.353C26.1717 284.679 25.6108 284.109 24.9558 284.114ZM36.5461 312.02C36.9042 313.585 39.2357 312.901 38.8786 311.34C38.3593 309.071 38.4349 306.742 38.8308 304.459C39.1034 302.885 36.7627 302.234 36.4891 303.812C36.0143 306.551 35.9228 309.297 36.5461 312.02ZM38.9846 222.335C40.7865 221.881 42.5715 221.817 44.4178 221.803C45.9799 221.792 45.9601 219.297 44.4005 219.308C42.3412 219.323 40.3317 219.428 38.3235 219.934C36.807 220.316 37.4708 222.716 38.9846 222.335ZM45.455 283.063C46.498 282.517 47.5416 281.97 48.5846 281.424C49.9768 280.696 48.7328 278.553 47.3465 279.278L44.2167 280.917C42.825 281.646 44.0687 283.788 45.455 283.063ZM46.2321 332.191C47.5737 334.152 49.4494 335.363 51.6944 335.959C53.209 336.362 53.8316 333.95 52.3221 333.549C50.7167 333.123 49.2875 332.337 48.3163 330.917C47.4234 329.611 45.3319 330.875 46.2321 332.191ZM53.9969 244.292C54.3514 243.599 54.8901 243.303 55.5614 243.283C57.1208 243.235 57.1038 240.74 55.5441 240.788C54.0143 240.834 52.6168 241.635 51.8955 243.048C51.1695 244.47 53.2714 245.714 53.9969 244.292ZM69.4876 261.144C69.9255 261.628 70.7679 261.61 71.2015 261.132C71.467 260.839 71.6895 260.513 71.864 260.156C71.9303 260.021 71.9927 259.883 72.0657 259.751C72.0983 259.692 72.1346 259.634 72.1718 259.578C72.1844 259.566 72.2106 259.538 72.2376 259.508C72.6998 258.998 72.6827 258.25 72.2254 257.744C71.7872 257.26 70.9448 257.278 70.5112 257.756C70.246 258.048 70.0231 258.374 69.849 258.732C69.7827 258.867 69.7203 259.005 69.647 259.137C69.6144 259.196 69.5781 259.254 69.5409 259.31C69.5283 259.322 69.5024 259.35 69.4754 259.38C69.0129 259.89 69.0299 260.638 69.4876 261.144ZM71.0359 297.975C72.6195 298.707 74.3506 298.695 75.9239 297.941C76.5197 297.655 76.6553 296.766 76.3465 296.231C75.9889 295.612 75.2784 295.511 74.6856 295.795C73.972 296.137 72.9613 296.144 72.244 295.812C71.6446 295.535 70.9424 295.64 70.5893 296.271C70.2861 296.813 70.4386 297.699 71.0359 297.975ZM75.5224 324.021C75.7982 324.68 76.3863 325.027 77.0711 325.049C77.7497 325.071 78.2504 324.448 78.2743 323.794C78.2896 323.371 78.065 323.011 77.7444 322.789C77.7439 322.766 77.7432 322.743 77.743 322.719C77.7379 322.02 77.1795 321.506 76.5225 321.48C75.8682 321.455 75.3145 322.084 75.3193 322.736C75.3227 323.177 75.3521 323.613 75.5224 324.021ZM82.0635 365.434C83.9979 365.453 85.891 365.914 87.8257 365.933C89.3889 365.948 89.3667 363.453 87.8083 363.438C85.874 363.419 83.9808 362.958 82.0462 362.939C80.483 362.924 80.5052 365.419 82.0635 365.434ZM88.9961 205.499C90.136 206.602 91.5383 207.139 92.9222 207.823C94.3243 208.516 95.5367 206.355 94.1306 205.66C92.9583 205.081 91.6619 204.656 90.6974 203.724C89.5597 202.623 87.8562 204.398 88.9961 205.499ZM92.2349 234.235C93.0264 233.821 93.8512 233.349 94.7577 233.31C96.3155 233.243 96.3003 230.748 94.7404 230.815C93.3804 230.873 92.1896 231.466 90.9966 232.089C89.604 232.817 90.848 234.959 92.2349 234.235ZM107.606 349.549C107.96 348.855 108.499 348.559 109.17 348.539C110.73 348.492 110.713 345.997 109.153 346.044C107.623 346.091 106.226 346.891 105.504 348.304C104.779 349.726 106.88 350.97 107.606 349.549ZM112.276 295.338C112.755 294.879 112.715 294.032 112.263 293.574C111.736 293.038 111.209 292.503 110.681 291.968C110.199 291.478 109.448 291.519 108.968 291.98C108.489 292.439 108.528 293.285 108.98 293.744C109.508 294.279 110.034 294.814 110.562 295.349C111.044 295.839 111.795 295.798 112.276 295.338ZM118.811 379.73C120.559 379.675 122.195 379.148 123.837 378.572C125.309 378.057 124.656 375.652 123.176 376.171C121.748 376.671 120.315 377.188 118.794 377.235C117.234 377.283 117.251 379.778 118.811 379.73ZM126.293 326.324C127.873 326.268 129.177 325.431 130.277 324.314C131.39 323.185 129.662 321.434 128.551 322.562C127.922 323.201 127.194 323.797 126.276 323.829C124.717 323.885 124.733 326.38 126.293 326.324ZM120.94 257.749C120.926 258.413 120.658 259.127 120.261 259.566C119.198 260.741 120.922 262.495 121.987 261.318C122.865 260.347 123.336 259.052 123.364 257.732C123.398 256.123 120.974 256.147 120.94 257.749ZM139.05 203.283C139.55 202.257 140.206 201.053 141.213 200.482C142.581 199.705 141.341 197.56 139.975 198.336C138.606 199.113 137.633 200.633 136.948 202.038C136.249 203.471 138.35 204.718 139.05 203.283ZM142.372 229.207C142.934 229.186 143.491 229.083 144.033 228.928C144.264 228.862 144.492 228.786 144.724 228.719C144.823 228.691 145.245 228.634 144.986 228.65C145.642 228.609 146.194 228.099 146.189 227.394C146.184 226.745 145.623 226.114 144.968 226.155C144.069 226.211 143.254 226.679 142.355 226.712C140.796 226.768 140.812 229.263 142.372 229.207ZM150.502 269.03L153.119 269.012C154.681 269.001 154.661 266.506 153.102 266.517L150.484 266.535C148.922 266.546 148.942 269.041 150.502 269.03ZM154.321 379.312C155.117 379.716 156.056 380.097 156.703 380.718C157.844 381.813 159.548 380.039 158.405 378.942C157.58 378.151 156.53 377.656 155.529 377.15C154.939 376.852 154.218 376.993 153.874 377.609C153.563 378.166 153.733 379.015 154.321 379.312ZM159.951 347.749C160.052 347.719 160.159 347.698 160.262 347.683C160.673 347.623 161.105 347.64 161.518 347.637C163.081 347.625 163.061 345.13 161.501 345.142C160.272 345.151 158.993 345.178 158.033 346.07C157.545 346.523 157.599 347.381 158.045 347.834C158.53 348.327 159.274 348.274 159.759 347.822C159.708 347.87 159.884 347.769 159.951 347.749ZM161.224 305.342C160.867 304.597 160.858 304.11 160.852 303.28C160.839 301.672 158.416 301.691 158.428 303.297C158.437 304.502 158.618 305.528 159.14 306.616C159.431 307.223 160.272 307.376 160.801 307.052C161.394 306.69 161.513 305.946 161.224 305.342ZM167.826 246.77C169.235 247.252 170.494 247.94 171.738 248.773C173.051 249.651 174.249 247.481 172.947 246.61C171.527 245.66 170.061 244.91 168.453 244.359C166.967 243.851 166.353 246.266 167.826 246.77ZM175.709 204.724C176.753 204.746 177.834 205.151 178.768 205.61C180.172 206.3 181.384 204.139 179.976 203.447C178.642 202.792 177.184 202.261 175.691 202.229C174.128 202.194 174.152 204.69 175.709 204.724ZM180.152 316.789C180.563 316.805 180.912 316.574 181.128 316.243C181.15 316.243 181.173 316.243 181.195 316.242C181.874 316.237 182.373 315.663 182.398 314.986C182.423 314.313 181.812 313.743 181.178 313.747C180.75 313.751 180.326 313.781 179.929 313.956C179.289 314.239 178.952 314.844 178.931 315.549C178.91 316.248 179.516 316.764 180.152 316.789ZM185.513 230.479C187.005 230.97 187.62 228.555 186.14 228.069C184.404 227.498 182.63 227.059 180.894 226.489C179.402 225.998 178.787 228.413 180.266 228.899C182.002 229.47 183.776 229.908 185.513 230.479ZM191.275 277.532C191.748 279.06 194.082 278.386 193.608 276.853C193.151 275.372 193.108 273.879 193.096 272.337C193.084 270.729 190.661 270.749 190.673 272.354C190.686 274.109 190.755 275.847 191.275 277.532ZM207.872 333.822C207.964 334.442 208.446 334.886 209.073 334.911C209.711 334.936 210.303 334.308 210.276 333.655C210.223 332.4 209.221 331.383 208.001 331.346C207.322 331.325 206.822 331.946 206.798 332.602C206.774 333.239 207.295 333.733 207.872 333.822ZM215.574 262.067C216.858 262.498 218.229 262.907 219.24 263.876C220.382 264.971 222.086 263.197 220.942 262.1C219.609 260.823 217.902 260.228 216.202 259.657C214.713 259.157 214.099 261.571 215.574 262.067ZM221.469 310.495C221.825 311.111 222.539 311.218 223.13 310.931C223.922 310.545 224.8 310.551 225.657 310.544C227.219 310.532 227.199 308.037 225.639 308.049C224.317 308.06 223.098 308.197 221.891 308.785C221.297 309.074 221.158 309.957 221.469 310.495ZM225.018 369.291C225.697 369.312 226.197 368.691 226.221 368.036C226.244 367.398 225.724 366.904 225.147 366.815C225.054 366.195 224.572 365.75 223.946 365.726C223.308 365.701 222.715 366.329 222.743 366.982C222.796 368.237 223.797 369.254 225.018 369.291ZM4.27614 380.258C4.67728 378.73 5.61091 377.492 6.31336 376.115C6.54888 375.651 6.62989 375.362 6.75691 375.023C6.93514 375.384 7.27817 375.654 7.79108 375.65C8.77511 375.644 9.92562 375.571 10.8469 375.998C11.446 376.275 12.1488 376.17 12.5016 375.539C12.8048 374.996 12.652 374.112 12.055 373.835C10.6972 373.206 9.24192 373.146 7.77375 373.155C7.4111 373.158 7.13759 373.297 6.94512 373.505C6.32911 365.6 6.28807 357.686 6.7639 349.767C7.27138 341.306 8.51685 333.007 9.82221 324.649C10.4542 320.597 11.2832 316.502 11.088 312.381C10.8929 308.287 9.16072 304.482 10.341 300.366C10.8143 298.716 11.634 297.201 12.1619 295.569C12.7284 293.813 12.6649 292.082 12.3887 290.269C11.8207 286.577 10.8959 282.932 12.3099 279.313C12.9347 277.709 13.9552 276.274 14.4402 274.617C15.044 272.558 14.9434 270.285 15.0316 268.154C15.2108 263.855 15.2353 259.529 15.5512 255.239C15.692 253.317 16.0157 251.493 16.7699 249.726C17.4946 248.024 18.5773 246.473 19.0526 244.67C19.525 242.895 19.5545 241.027 19.8024 239.213C20.0618 237.296 20.4759 235.407 21.0387 233.563C23.213 226.424 27.2434 219.997 32.019 214.415C37.095 208.482 43.181 203.999 49.6448 199.815C53.0438 197.616 56.4424 195.416 59.839 193.216C59.9145 193.624 60.1701 193.997 60.6569 194.161C61.9412 194.592 63.312 195.001 64.3231 195.97C65.465 197.064 67.1691 195.291 66.0247 194.194C64.8309 193.05 63.3364 192.454 61.8161 191.931C63.3636 190.912 64.9275 189.857 66.6776 189.262C68.2104 188.74 70.4793 189.17 71.7168 188.001C72.6887 187.081 72.9862 185.385 73.353 184.141C73.8119 182.597 74.2066 180.97 74.793 179.469C75.1919 178.443 75.7758 177.456 76.5156 176.659C76.8338 175.36 77.4257 174.17 78.4811 173.443C81.2428 171.533 84.6642 173.387 85.9038 176.073C86.9127 176.063 87.9777 176.283 88.9597 176.339C90.9783 176.456 92.9995 176.501 95.0202 176.481C98.9738 176.441 102.929 176.148 106.845 175.581C113.849 174.566 120.637 172.57 127.519 171.003C127.558 170.909 127.602 170.815 127.656 170.721C129.123 168.148 132.825 168.555 135.162 169.509C136.164 169.917 137.186 170.434 137.765 171.403C138.374 171.82 138.902 172.327 139.254 172.864C139.983 173.973 140.556 176.214 142.021 176.391C142.985 176.506 143.962 176.309 144.942 176.446C146.167 176.612 147.267 177.047 148.4 177.545C157.031 181.33 165.956 185.544 175.304 186.97C177.496 187.304 179.729 187.65 181.64 188.9C183.192 189.915 184.396 191.317 185.68 192.646C186.932 193.941 187.96 194.51 189.734 194.732C191.887 195.001 193.754 195.599 195.338 197.197C196.653 198.526 197.516 200.229 198.551 201.775C199.604 203.352 201.14 204.234 202.734 205.143C206.503 207.293 210.017 209.898 213.084 213.03C219.544 219.634 223.487 228.152 227.459 236.452C231.754 245.429 235.774 254.517 238.586 264.116C241.342 273.54 243.009 283.244 243.816 293.044C244.666 303.326 244.847 313.655 245.567 323.945C245.927 329.085 246.208 334.232 246.492 339.376C246.77 344.458 247.16 349.548 247.138 354.638C247.097 364.478 245.254 374.362 241.976 383.597C241.159 385.895 240.25 388.163 239.281 390.396C238.431 392.358 235.476 392.16 234.537 390.429C234.322 390.031 234.152 389.621 234.01 389.204C231.586 389.243 229.137 389.066 226.73 389.314C222.479 389.752 218.219 390.009 213.955 390.31C205.518 390.908 197.065 391.326 188.624 391.88C187.806 391.934 186.987 391.988 186.168 392.044C192.052 372.831 191.128 352.11 191.941 332.166C192.007 330.558 189.583 330.584 189.518 332.183C188.701 352.213 189.659 372.986 183.563 392.232C181.147 392.417 178.734 392.639 176.331 392.957C174.388 393.211 172.436 393.508 170.472 393.422C168.244 393.328 166.065 392.82 163.89 392.379C159.936 391.58 156.137 391.981 152.178 392.517C147.943 393.092 143.691 393.424 139.427 393.644C122.351 394.533 105.16 395.354 88.0769 394.297C83.9425 394.042 79.8164 393.671 75.7075 393.157C71.4743 392.628 67.2839 391.719 63.0541 391.215C58.8847 390.72 55.065 392.184 50.9495 392.478C46.7527 392.778 42.4349 391.907 38.2717 391.418C36.9135 391.258 35.5539 391.103 34.194 390.949C35.8576 378.595 36.7658 366.153 37.6456 353.716C37.759 352.112 35.3345 352.143 35.2219 353.733C34.3493 366.073 33.4625 378.422 31.801 390.679C24.592 389.866 17.3761 389.043 10.2389 387.749C8.20644 387.382 6.18441 386.776 4.95656 384.919C4.04747 383.544 3.85364 381.852 4.27614 380.258Z" fill="black"/>
<path fill-rule="evenodd" clip-rule="evenodd" d="M57.1487 118.182C57.7585 112.279 56.8307 99.955 56.769 99.2063C56.3794 94.4732 58.4005 75.758 62.4788 77.4528C69.2611 71.8353 78.3377 70.5422 86.8288 69.8957C104.466 68.5525 123.258 71.2242 136.969 83.3795C143.751 89.6943 150.376 98.9014 149.915 108.539C156.101 117.629 164.819 130.095 157.265 140.824C154.696 144.253 150.584 145.552 147.344 148.158C140.83 153.654 136.774 161.506 130.198 166.971C112.788 183.336 83.0575 186.935 65.7131 168.58C52.3073 155.292 54.3209 135.26 56.5441 118.186C58.0387 106.708 55.959 129.699 57.1487 118.182Z" fill="#EDB98A"/>
<path fill-rule="evenodd" clip-rule="evenodd" d="M110.228 44.7167C105.502 43.7671 100.652 43.1895 95.8335 43.407L95.462 43.4244C91.8369 43.5991 87.247 43.9617 84.0989 46.1588C83.9156 45.9717 83.6222 45.877 83.3577 46.0095C79.6115 47.8865 75.4862 49.2534 71.5374 50.6107C67.6067 51.9613 63.5254 52.8632 59.3984 53.244C57.8456 53.3873 56.528 55.1271 57.5226 56.6724C57.7592 57.0406 57.9897 57.4126 58.2194 57.7856C57.8393 57.7474 57.4593 57.7079 57.0793 57.671C55.8289 57.5499 54.5902 58.9342 54.673 60.1886C54.7247 60.9776 54.8127 61.757 54.9402 62.5268C54.4642 62.5198 53.9916 62.5967 53.5359 62.7991C51.2283 63.8235 51.4092 66.6662 51.5974 68.8287C51.8583 71.8296 52.9691 75.0024 55.006 77.2357C53.5081 78.8632 52.4531 80.8016 51.8317 83.0995C51.3811 84.7774 51.1362 86.563 51.2753 88.3055L51.3194 88.8271C51.4895 90.7179 51.8163 92.8102 53.1451 94.162C53.8272 94.859 54.6634 95.1089 55.4582 95.0223C55.0075 99.3855 54.7296 103.772 54.4697 108.144L54.3481 110.233C53.7708 120.335 53.3549 130.503 53.5524 140.616C53.7362 150.068 55.6106 159.23 61.2841 166.866C66.4513 173.82 73.8362 178.921 82.1637 180.821C86.6515 181.847 91.2262 181.89 95.7564 181.185C97.9523 180.843 100.162 180.325 102.242 179.519C104.546 178.623 106.196 177.317 107.737 175.367C108.465 174.442 108.098 172.486 106.636 172.68C104.424 172.972 102.406 173.32 100.289 174.01L99.9856 174.111C97.8769 174.824 95.6917 175.36 93.4836 175.597C88.9606 176.08 84.3624 175.657 80.017 174.271C72.9417 172.012 66.8263 166.912 62.8844 160.477C58.2057 152.85 57.6223 144.159 57.6279 135.352C57.6324 125.687 57.8699 116.015 58.3003 106.358L58.3738 104.748C58.6023 99.7784 58.8217 94.8056 59.0106 89.833C59.0693 88.2732 59.1642 86.7006 59.3442 85.1431C61.081 84.0769 62.6339 82.6128 63.6403 80.8125C65.6931 81.6715 67.85 82.2865 69.834 82.7749C74.4295 83.9069 79.1943 84.1563 83.8586 83.3951C85.1218 83.923 86.4097 84.386 87.7167 84.783C88.0704 84.9417 88.424 85.0977 88.7773 85.2506C91.9314 86.6165 95.129 87.7701 98.4542 88.6078L99.2711 88.8119C101.021 89.2439 102.921 89.6682 104.781 89.7926C105.088 89.9121 105.418 90.0128 105.778 90.1007C107.474 90.5131 109.232 90.635 110.966 90.4732C112.655 90.3149 113.864 88.5444 112.922 86.9011C112.233 85.7021 111.538 84.5062 110.838 83.3134C113.254 84.3321 115.748 85.1755 118.263 85.8879C120.801 86.6063 123.375 87.209 125.952 87.7619C127.33 88.0548 128.713 88.3134 130.088 88.6064C131.072 88.8148 132.581 88.9165 133.387 89.5784C134.278 90.3051 134.541 92.0124 134.884 93.0641C135.335 94.4301 135.759 95.8026 136.146 97.1908C136.918 99.9612 137.554 102.773 138.052 105.614C138.549 108.458 138.89 111.331 139.088 114.214C139.286 117.095 139.228 119.996 139.535 122.863C139.7 124.384 141.289 125.155 142.452 124.084C142.588 123.958 142.726 123.831 142.862 123.703L143.065 123.509C144.059 122.566 145.023 121.568 145.816 120.446C145.96 120.239 146.097 120.023 146.226 119.804C146.247 119.803 146.265 119.797 146.286 119.781L146.507 119.607C148.939 117.713 153.007 115.237 155.413 118.339C156.179 119.328 156.577 120.59 156.908 121.809L157.49 123.989C157.866 125.412 158.221 126.844 158.433 128.302C158.912 131.567 158.709 135.336 156.547 137.97C155.683 139.024 154.488 139.781 153.151 139.987C152.404 140.098 151.666 139.972 150.924 139.881C150.171 139.789 149.447 139.95 148.693 139.881C147.495 139.767 146.982 141.249 147.436 142.175C147.682 142.673 147.969 143.101 148.295 143.464C148.037 143.696 147.79 143.948 147.553 144.211C146.847 144.45 146.216 144.957 145.746 145.624C145.366 146.163 145.171 146.748 145.141 147.362C145.1 147.515 145.065 147.672 145.033 147.831L144.392 148.921C144.251 149.16 144.11 149.397 143.969 149.628C142.337 152.322 140.52 154.605 138.259 156.76C136.081 158.834 133.715 160.693 131.671 162.916L131.43 163.179C129.525 165.279 127.519 167.819 128.292 170.848C128.491 171.627 129.55 172.181 130.235 171.649C132.44 169.937 133.537 167.241 135.403 165.17C137.323 163.035 139.453 161.115 141.379 158.987C143.201 156.979 144.633 154.707 145.707 152.211C146.146 152.704 146.783 153.052 147.664 153.183C149.177 153.407 150.58 152.483 151.229 151.128C151.654 151.319 152.087 151.49 152.524 151.624C154.821 152.332 156.244 149.693 155.366 147.756C154.897 146.718 154.313 145.817 153.591 145.061C155.829 144.728 158.1 143.517 159.562 142.016C163.23 138.245 163.699 132.613 162.833 127.613C162.373 124.962 161.593 122.282 160.587 119.797C160.412 119.365 160.224 118.93 160.019 118.501C160.131 118.497 160.245 118.446 160.317 118.349C160.979 117.403 161.786 116.627 162.275 115.569C162.725 114.599 163.226 113.616 163.579 112.607C164.305 110.54 164.651 108.211 164.878 106.029C165.346 101.563 165.122 97.1299 164.429 92.6999C163.249 85.1544 160.475 77.945 156.419 71.6302C156.637 71.5103 156.845 71.3659 157.039 71.1955L157.135 71.1081L157.29 70.9611C158.428 69.8844 158.315 67.882 157.262 66.8068L156.929 66.4675C156.507 66.0417 156.144 65.7045 155.465 65.2424C155.365 65.1742 155.263 65.11 155.159 65.0502C155.508 64.3735 155.626 63.5843 155.373 62.7162C154.493 59.6921 150.268 59.8288 147.598 61.1687C144.615 58.4608 141.313 56.1151 137.737 54.2219C129.222 49.7151 119.608 46.5976 110.228 44.7167ZM154.634 124.218C153.046 123.695 150.95 124.829 149.531 125.513C147.732 126.38 146.205 127.654 144.726 128.999C143.99 129.671 143.865 130.764 144.056 131.695C144.075 131.788 144.093 131.885 144.116 131.982C144.319 132.975 145.401 133.75 146.353 133.716C148.345 133.646 149.281 131.865 150.399 130.354C150.533 130.596 150.701 130.819 150.908 130.986L151.048 131.098C151.519 131.462 152.037 131.752 152.655 131.719C153.093 131.695 153.512 131.576 153.898 131.365C154.862 130.831 155.279 129.537 155.009 128.488C154.841 127.828 154.462 127.313 153.97 126.957L154.152 126.827C154.54 126.544 154.895 126.246 155.169 125.808L155.231 125.704L155.207 125.704C155.506 125.166 155.304 124.437 154.634 124.218Z" fill="black"/>
<path fill-rule="evenodd" clip-rule="evenodd" d="M80.024 156.121C82.2604 156.771 84.6564 156.814 86.9266 156.111C88.9857 155.473 91.0948 154.087 92.6008 152.261C93.9387 150.639 94.7988 148.673 94.75 146.582C94.7444 146.343 94.66 146.144 94.5313 145.99C94.3927 145.825 94.2 145.712 93.9941 145.663C93.7822 145.614 93.5588 145.634 93.3691 145.724C93.1973 145.806 93.0506 145.944 92.9597 146.144C92.7285 146.461 92.4982 146.774 92.2669 147.078C90.4069 149.476 88.602 151.271 85.7847 151.93C84.2561 152.288 82.726 152.145 81.3193 151.625C79.8135 151.069 78.449 150.082 77.3763 148.814C76.8915 148.241 76.3223 148.01 75.7672 148.01C75.1382 148.01 74.5186 148.315 74.0536 148.799C73.5965 149.275 73.2928 149.919 73.2695 150.592C73.2491 151.181 73.4402 151.796 73.9412 152.342C75.5913 154.141 77.7229 155.452 80.024 156.121ZM79.8853 126.247C77.6074 127.694 74.1447 131.056 76.6305 134.588C79.5492 137.697 83.6953 134.08 85.7395 132.443C87.6366 131.173 89.8004 134.392 88.0423 135.873C73.2686 147.295 67.0979 126.71 78.7165 124.572C79.9957 124.336 80.4816 125.8 79.8853 126.247ZM101.243 119.799C101.975 119.31 102.838 119.138 103.8 119.58C104.552 119.926 105.874 121.086 106.799 122.616C107.432 123.663 107.884 124.894 107.8 126.179C107.781 126.477 107.89 126.697 108.06 126.858C108.194 126.986 108.387 127.079 108.614 127.107C108.806 127.13 109.021 127.106 109.196 127.049C109.528 126.94 109.702 126.716 109.767 126.534C110.395 124.78 110.106 122.829 109.376 121.072C108.391 118.7 106.619 116.721 105.462 116.086C103.483 115.001 101.157 114.966 99.1903 116.1C97.5163 117.065 96.476 118.611 95.4417 120.187C95.2219 120.522 95.0036 120.855 94.778 121.181C94.3258 121.836 94.2848 122.483 94.4655 123.036C94.6657 123.648 95.169 124.163 95.7957 124.43C96.3749 124.676 97.0454 124.707 97.6367 124.445C98.1362 124.224 98.5931 123.797 98.879 123.076C99.3606 121.86 100.168 120.518 101.243 119.799ZM63.9164 122.755C64.4219 123.021 64.8164 123.1 65.3739 122.924C65.6821 122.826 65.9862 122.641 66.2235 122.393C66.4587 122.148 66.6275 121.843 66.6916 121.506C66.8493 120.675 67.2852 119.895 67.9106 119.384C68.4451 118.947 69.122 118.713 69.8754 118.837C70.6885 118.971 71.4659 119.502 72.0031 120.13C72.1827 120.34 72.324 120.579 72.466 120.817C72.7316 121.261 72.9897 121.674 73.3541 122C73.4922 122.123 73.6996 122.208 73.9 122.207C73.9814 122.206 74.0639 122.192 74.1425 122.166C74.9449 121.326 75.096 120.691 75.0655 120.063C75.0336 119.404 74.7766 118.739 74.3645 118.119C73.3977 116.666 71.5731 115.481 70.3455 115.218C68.6644 114.859 67.0005 115.316 65.6706 116.29C64.3023 117.293 63.294 118.842 62.9884 120.581C62.9148 121 62.9504 121.452 63.108 121.842C63.2619 122.224 63.5278 122.55 63.9164 122.755ZM97.4326 104.258C98.4469 105.261 99.6403 105.409 100.847 105.54C101.518 105.614 102.054 105.673 102.581 105.791C104.03 106.118 105.464 106.614 106.774 107.334C108.144 108.087 109.637 108.996 110.714 110.167C110.971 110.446 111.212 110.738 111.454 111.031C111.675 111.298 111.888 111.556 112.112 111.804C112.369 112.088 112.614 112.387 112.857 112.685C113.008 112.937 113.037 112.999 113.068 113.063C113.114 113.16 113.167 113.269 113.228 113.385C113.311 113.544 113.409 113.719 113.511 113.877C113.68 114.166 113.771 114.245 113.849 114.28C113.979 114.338 114.101 114.367 114.22 114.35C114.331 114.334 114.436 114.279 114.538 114.188C115.053 113.734 115.2 112.995 115.179 112.212C115.147 111.023 114.712 109.709 114.313 108.903C113.387 107.029 112.107 105.083 110.574 103.69C108.825 102.1 106.916 100.9 104.726 100.08C103.365 99.5696 101.791 99.1036 100.313 99.1741C99.2489 99.2249 98.2352 99.5576 97.4018 100.377C96.8901 100.879 96.6477 101.591 96.6527 102.301C96.6577 103.024 96.9196 103.751 97.4326 104.258ZM61.8051 113.757C61.8699 113.865 61.9591 113.939 62.0581 113.983C62.1618 114.029 62.2774 114.042 62.388 114.022C62.4982 114.002 62.6027 113.949 62.6854 113.87C62.7646 113.794 62.8246 113.694 62.8509 113.571C63.4987 110.543 64.7817 108.284 67.5433 106.814C68.9019 106.091 70.4666 105.627 71.9483 105.255C72.3789 105.147 72.8341 105.076 73.2926 105.003C74.7296 104.777 76.1766 104.52 77.1061 103.316C77.6661 102.591 77.8968 101.668 77.7569 100.825C77.6251 100.032 77.1694 99.3075 76.3471 98.877C74.2998 97.8056 71.7725 98.8884 69.719 99.8101C69.5667 99.8785 69.4172 99.9456 69.2709 100.01C67.2627 100.9 65.4336 102.068 63.9349 103.73C62.7458 105.049 61.649 106.995 61.2157 108.991C60.8553 110.652 60.9545 112.344 61.8051 113.757Z" fill="black"/>
<path fill-rule="evenodd" clip-rule="evenodd" d="M73.711 161.202C76.5145 158.595 79.641 153.371 83.7229 157.459C84.7335 158.615 85.1576 161.219 86.6941 161.72C88.7347 162.386 90.7371 160.155 91.419 158.447C94.1921 148.966 82.4391 146.453 75.7645 148.028C72.5082 149.431 70.1413 155.005 70.016 157.906C69.9356 159.856 71.5582 162.711 73.711 161.202ZM52.3235 146.767C52.3502 146.641 52.3879 146.528 52.4336 146.424C53.6781 145.93 54.6689 146.418 55.2855 147.339C55.2671 147.569 55.202 147.802 55.1615 148.031C55.6394 149.048 56.0729 150.309 56.7171 151.187C56.8432 151.196 56.9737 151.181 57.0988 151.143C67.6841 152.206 62.441 140.85 73.1495 137.946C81.4327 136.48 96.4327 137.99 100.407 146.848C103.591 161.018 119.21 151.02 124.31 143.604C129.759 136.848 133.256 128.615 136.627 120.627C137.34 118.936 139.608 120.126 139.373 121.745C142.586 128.263 142.535 136.119 143.369 143.279C144.803 157.563 146.242 177.6 133.4 186.418C116.726 206.094 74.7956 213.287 55.2818 195.451C48.4668 180.643 49.1683 162.516 52.3235 146.767Z" fill="black"/>
<path fill-rule="evenodd" clip-rule="evenodd" d="M63.0629 103.17C55.9518 103.22 51.9046 104.822 50.4184 104.955L50.3737 104.959C49.7554 105.004 49.2009 105.061 48.6204 105.296C46.4857 106.16 46.1531 108.473 47.4124 109.921C47.5209 112.934 47.1603 116.458 47.842 119.477C48.7455 132.218 54.5837 134.328 57.8992 135.09C59.5638 135.473 61.5345 135.616 63.2968 135.188C66.3074 135.051 69.2778 134.06 71.8133 132.353C75.3443 129.973 77.954 126.335 78.7792 122.033C79.1702 119.982 79.3448 117.849 79.1098 115.769L79.0751 115.483C80.2243 114.907 81.5597 114.79 82.9368 114.73C83.5946 114.702 84.243 114.676 84.8732 114.7C85.4895 114.767 86.0987 114.857 86.7099 114.981C87.3778 115.183 88.0096 115.52 88.5946 116.058L88.6401 116.847C88.763 118.819 89.0284 120.796 89.4299 122.729C90.0228 125.581 90.9635 128.302 92.9393 130.314C93.6104 131.33 94.4384 132.236 95.4414 133.018C99.0849 135.865 104.015 136.885 108.531 136.457C117.698 135.587 122.948 128.055 124.148 124.843L124.219 124.648C125.085 122.26 125.767 119.165 128.553 118.634L129.145 118.52C130.416 118.265 131.588 117.914 132.326 116.631C132.649 116.071 132.813 115.445 132.85 114.809C133.286 114.84 133.721 114.87 134.154 114.899C137.616 115.627 158.351 116.121 160.006 116.11C160.006 116.11 163.196 117.466 164.532 116.389C165.457 115.64 165.757 114.648 165.237 113.531C164.452 111.849 160.878 110.859 159.292 110.549C159.292 110.549 133.734 110.945 131.892 110.599C130.745 109.399 128.71 109.578 127.008 109.399C125.592 108.375 123.617 107.696 122.057 107.244C121.739 107.122 121.425 107.005 121.118 106.894C118.258 105.868 115.289 105.335 112.276 105.058C109.169 104.776 106.056 104.935 102.972 105.392C101.673 105.582 100.386 105.826 99.1086 106.142C96.8197 106.469 94.5455 106.997 92.2578 107.62L91.8001 107.746C89.3912 108.415 86.9149 108.995 84.4134 108.571C82.377 108.228 80.4154 107.436 78.534 106.577L78.289 106.465C74.152 104.556 67.7022 103.138 63.0629 103.17ZM99.3834 110.005C100.902 109.65 101.569 112.06 100.045 112.416C98.966 112.668 98.0539 113.235 97.4416 114.19L97.3771 114.294C96.5561 115.66 94.4474 114.419 95.2741 113.044C96.2043 111.497 97.6588 110.407 99.3834 110.005ZM54.8114 108.817C55.345 108.424 56.1587 108.707 56.4739 109.255C56.8208 109.858 56.6009 110.533 56.1013 110.932L56.0504 110.971C55.592 111.309 55.1474 111.911 55.0953 112.526L55.0909 112.602C55.0417 114.21 52.6158 114.235 52.6652 112.619C52.7134 111.039 53.5929 109.713 54.8114 108.817Z" fill="black"/>
<path fill-rule="evenodd" clip-rule="evenodd" d="M403.995 235.308C401.281 224.785 398.822 220.333 394.105 216.702C389.694 213.305 383.269 210.472 373.909 208.434C364.162 206.75 363.85 201.545 361.351 193.194C360.622 190.683 357.089 190.038 355.579 191.862C355.362 191.625 355.137 191.408 354.904 191.212C355.103 190.011 353.382 186.584 353.43 185.436C353.939 173.452 350.09 167.463 340.572 165.293C338.502 164.82 324.463 164.632 322.452 165.219C313.66 167.787 305.044 175.805 306.438 185.383C303.698 189.121 301.008 191.41 296.75 192.638C290.113 193.552 294.123 290.393 306.064 348.345C311.187 373.21 429.264 330.008 423.828 317.575C424.571 315.284 423.171 312.781 423.779 310.417C424.218 308.705 425.369 307.991 425.94 306.295C426.742 303.909 425.829 300.722 424.89 298.299C424.504 297.091 425.568 295.781 425.858 294.543C427.232 288.707 423.996 289.243 421.634 285.364C421.669 285.352 422.257 282.567 422.254 282.581C422.598 280.593 421.685 278.056 420.892 276.404C420.356 275.288 419.22 274.595 418.097 274.731C419.201 270.769 420.61 267.468 422.123 263.647C424.799 256.912 427.339 249.868 431.206 243.762C432.789 241.262 431.48 238.981 428.889 238.829C420.499 238.339 412.197 237.154 403.995 235.308Z" fill="#AE5D29"/>
<path fill-rule="evenodd" clip-rule="evenodd" d="M390.911 236.213L372.001 269.687C372.001 269.687 376.545 270.122 378.389 271.018C380.233 271.913 388.747 282.895 388.747 282.895L390.13 288.965L386.988 293.888L388.248 296.957C388.248 296.957 389.117 294.866 391.307 293.232C393.496 291.599 398.331 288.908 398.331 288.908C398.331 288.908 396.712 288.031 396.704 286.989C396.697 285.946 395.246 281.508 398.267 279.807C401.289 278.106 416.937 274.065 416.937 274.065L432.583 239.465L390.911 236.213Z" fill="#EC7495"/>
<path fill-rule="evenodd" clip-rule="evenodd" d="M305.218 192.805L366.073 203.362L394.105 216.702L398.691 220.286L372.001 269.687L330.316 277.815L319.88 306.318L322.273 338.348L390.117 329.544L419.382 325.758L426.466 354.32L425.303 366.098L423.536 372.079L351.065 392.76C351.065 392.76 314.065 389.328 307.51 389.373C300.956 389.419 252.935 394.665 252.935 394.665L241.807 393.519C241.807 393.519 217.022 367.004 213.14 357.533C209.259 348.062 200.607 290.385 200.607 290.385L201.454 281.508L222.317 225.064C222.317 225.064 225.137 222.392 228.684 217.851C232.231 213.309 305.218 192.805 305.218 192.805Z" fill="#9DDADB"/>
<path fill-rule="evenodd" clip-rule="evenodd" d="M415.786 273.362C410.295 273.687 404.806 275.07 399.854 277.539C397.828 278.551 395.996 280.005 395.473 282.379C395.209 283.591 395.284 284.841 395.438 286.063C395.554 286.988 395.589 288.17 396.375 288.791C396.509 288.896 396.652 288.976 396.801 289.035C394.974 289.899 393.236 290.934 391.692 291.999C390.281 292.972 388.834 294.467 388.191 296.146C388.135 295.956 388.08 295.779 388.024 295.611C386.885 292.226 385.148 289.459 382.43 287.609C382.115 286.459 378.783 281.522 375.722 281.73C372.369 281.956 369.674 282.228 366.652 283.836C365.546 283.819 364.443 283.842 363.353 283.899C363.165 283.907 363.176 284.169 363.355 284.189C364.24 284.299 365.126 284.42 366.012 284.564C368.117 284.896 370.216 285.321 372.271 285.852C374.736 286.49 377.285 287.13 379.592 288.259C384.067 290.452 386.868 296.246 386.336 301.308C386.248 302.138 385.954 304.648 384.834 304.396C383.887 304.185 383.497 302.157 383.162 301.408C382.263 299.418 380.661 298.126 378.743 297.256C376.491 296.233 374.083 295.548 371.751 294.748C370.43 294.292 369.109 293.836 367.785 293.384C366.43 292.917 365.141 292.267 363.704 292.611C362.836 292.82 362.744 293.887 363.236 294.495C363.984 295.422 365.089 295.689 366.161 296.065C367.576 296.56 368.989 297.056 370.401 297.551C372.584 298.316 374.871 298.958 377.001 299.897L376.935 300.054C376.762 300.005 376.56 300.184 376.596 300.402C376.928 302.418 377.386 304.748 376.909 306.772C376.533 308.378 375.178 310.162 373.4 309.703C373.677 309.439 373.777 308.986 373.586 308.57C372.872 307.028 363.62 300.985 362.815 303.259C362.788 303.34 362.873 303.398 362.94 303.386C363.639 303.231 364.82 304.451 365.383 304.837C366.195 305.393 367.02 305.936 367.824 306.508C368.704 307.132 369.563 307.787 370.401 308.464C371.059 308.996 371.557 309.55 372.31 309.817C371.918 310.013 371.608 310.373 371.478 310.833C371.147 312.03 370.5 313.048 369.367 313.583C368.18 314.14 366.836 313.803 365.582 313.946C363.875 314.135 362.39 314.982 361.153 316.185C358.556 318.716 357.275 323.154 353.627 324.368C351.447 325.091 349.02 324.661 346.806 324.356C344.335 324.014 341.927 323.747 339.443 324.139C337.064 324.514 334.819 325.378 332.651 326.428C330.618 327.412 328.372 328.526 326.573 329.985C326.192 328.806 325.809 327.639 325.515 326.434C324.823 323.585 324.439 320.681 324.331 317.75C324.23 314.96 324.362 312.155 324.576 309.375C324.681 307.986 324.854 306.603 324.959 305.215C324.987 304.865 325.045 304.491 325.088 304.116C328.304 302.132 331.686 300.605 335.096 299.035C335.105 299.032 335.114 299.025 335.123 299.022C335.229 298.971 335.332 298.924 335.438 298.877C335.434 298.87 335.431 298.864 335.425 298.858C335.814 298.609 336.085 298.279 336.246 297.91C341.152 294.511 345.24 289.889 348.275 284.509C349.547 282.255 350.77 279.917 352.441 277.938C354.22 275.826 356.341 274.564 358.972 273.897C362.048 273.115 365.22 272.637 368.375 272.356C370.098 272.204 372.023 271.972 373.902 271.969C375.21 271.969 376.492 272.075 377.671 272.401C379.416 272.882 380.443 274.238 381.547 275.608C382.601 276.923 383.649 278.242 384.635 279.613C385.567 280.913 386.45 282.258 387.217 283.668C387.677 284.513 388.104 285.384 388.465 286.282C388.591 286.6 388.758 286.96 388.836 287.29C388.914 287.623 388.777 287.977 389.14 287.975C387.641 288.007 386.671 291.863 388.161 291.762C390.256 291.622 391.291 289.028 390.865 286.737C390.104 282.648 386.113 277.731 385.323 276.689C383.577 274.387 381.772 271.381 378.995 270.324C378.956 270.309 378.913 270.294 378.874 270.281C379.674 269.49 380.304 268.544 380.906 267.582C381.526 266.592 382.267 265.458 382.465 264.287C382.59 263.541 381.687 263.123 381.265 263.777C380.65 264.733 380.358 265.939 379.902 266.987C379.437 268.05 378.868 269.055 378.421 270.128C377.325 269.79 376.143 269.639 374.939 269.595C376.443 267.47 379.007 263.372 379.316 262.846C380.735 260.41 382.084 257.899 383.373 255.386C384.765 252.663 385.955 249.829 387.287 247.075C388.043 245.514 388.804 243.94 389.645 242.424C389.935 241.905 390.247 241.385 390.601 240.911C390.67 240.818 390.757 240.739 390.839 240.651C390.932 240.597 391.029 240.537 391.083 240.506C391.571 240.213 391.74 239.538 392.082 239.108C392.629 238.415 393.277 238.329 394.107 238.314C395.876 238.283 397.652 238.342 399.418 238.38C402.015 238.437 404.609 238.525 407.204 238.647C407.989 238.685 408.771 238.724 409.556 238.768C413.329 238.973 417.1 239.249 420.862 239.594C424.191 239.898 427.521 240.409 430.853 240.641C426.421 251.697 421.498 262.557 415.91 273.043C415.854 273.149 415.812 273.256 415.786 273.362ZM390.97 301.937C390.246 302.285 389.543 302.717 388.889 303.208C388.992 302.45 389.014 301.651 388.978 300.85C389.525 301.445 390.221 301.783 390.97 301.937ZM421.877 282.757C421.826 282.764 421.777 282.792 421.754 282.845C420.763 284.988 421.2 287.371 422.854 289.034C423.72 289.902 425.603 290.874 425.552 292.309C425.508 293.47 424.288 294.451 423.771 295.412C423.289 296.308 423.114 297.288 423.512 298.252C424.02 299.487 425.42 299.97 425.908 301.183C426.524 302.722 425.552 304.591 424.871 305.94C424.237 307.189 423.416 308.439 422.874 309.759C419.194 311.752 410.839 315.384 409.831 315.591C408.603 315.846 407.372 316.088 406.137 316.315C403.768 316.756 401.393 317.165 399.011 317.528C397.655 317.734 396.296 317.937 394.937 318.099C393.75 318.238 392.412 318.425 391.448 317.512C389.505 315.666 390.565 312.543 391.773 310.658C391.797 310.62 391.797 310.586 391.788 310.555C392.937 310.269 394.083 309.937 395.227 309.701C397.426 309.249 399.641 308.866 401.86 308.523C406.418 307.821 411.007 307.346 415.591 306.868C416.726 306.748 416.726 304.908 415.578 305.025C408.993 305.692 402.375 306.327 395.882 307.679C394.254 308.014 392.639 308.394 391.033 308.819C390.274 309.018 389.461 309.327 388.665 309.341C388.616 309.342 388.567 309.342 388.519 309.339C386.959 309.3 386.722 307.927 387.571 306.776C387.676 306.635 387.784 306.494 387.896 306.359C389.397 304.49 391.276 303.235 393.212 301.937C395.389 301.616 397.556 300.921 399.686 300.407C404.942 299.136 410.199 297.864 415.459 296.596C416.49 296.345 416.04 294.714 415.009 294.962C411.016 295.922 407.023 296.882 403.03 297.842L397.187 299.249C396.019 299.528 394.563 300.084 393.189 300.291C392.511 300.392 391.854 300.409 391.259 300.27C389.338 299.815 389.224 297.349 390.041 295.877C390.956 294.225 392.7 293.183 394.248 292.24C396.93 290.602 399.788 289.419 402.578 288.059C403.074 287.943 403.57 287.827 404.066 287.712C406.952 287.037 410.252 286.692 412.964 285.473C413.777 285.112 413.322 283.793 412.517 283.817C410.405 283.879 408.202 284.667 406.142 285.14C403.913 285.654 401.68 286.166 399.451 286.677C399.227 286.728 397.903 287.174 397.702 287.079C397.575 287.018 397.526 286.563 397.482 286.263C397.338 285.279 397.231 284.245 397.373 283.255C397.685 281.035 399.474 279.981 401.286 279.117C405.32 277.196 409.75 275.98 414.164 275.475C415.182 275.359 416.199 275.284 417.223 275.242C418.425 275.196 419.414 274.971 420.032 276.186C421.003 278.1 421.547 280.567 421.877 282.757ZM416.74 352.449C415.836 349.315 416.053 345.961 415.426 342.763C415.103 341.112 414.666 339.476 414.19 337.867C413.806 336.566 413.171 335.185 413.09 333.825C413.085 333.735 413.189 333.682 413.261 333.723C414.51 334.448 415.477 336.027 416.195 337.266C417.055 338.75 417.714 340.304 418.249 341.94C419.314 345.199 420.198 349.133 418.876 352.434C418.482 353.417 417.078 353.622 416.74 352.449ZM382.486 376.457C381.165 375.522 380.198 374.209 379.076 373.052C377.971 371.914 379.673 370.138 380.777 371.276C381.735 372.262 382.569 373.498 383.694 374.294C384.235 374.676 384.489 375.374 384.141 375.998C383.833 376.548 383.026 376.839 382.486 376.457ZM374.905 340.223C377.296 339.139 379.648 337.96 382.153 337.173C383.651 336.703 384.303 339.107 382.815 339.574C380.507 340.299 378.345 341.371 376.143 342.369C374.729 343.01 373.481 340.869 374.905 340.223ZM349.563 339.652C348.965 338.166 351.307 337.508 351.895 338.973C352.572 340.659 353.347 342.301 354.024 343.988C354.621 345.474 352.28 346.132 351.692 344.667C351.014 342.981 350.24 341.339 349.563 339.652ZM324.761 369.583C324.374 370.122 323.725 370.418 323.106 370.043C322.588 369.728 322.268 368.885 322.66 368.339C323.804 366.746 324.963 365.172 326.307 363.75C327.397 362.596 329.122 364.35 328.034 365.502C326.833 366.772 325.783 368.161 324.761 369.583ZM320.026 202.64C321.144 203.415 322.125 204.358 323.082 205.329C324.195 206.458 322.493 208.234 321.38 207.105C320.574 206.287 319.76 205.456 318.817 204.803C318.273 204.426 318.024 203.719 318.371 203.099C318.681 202.544 319.482 202.264 320.026 202.64ZM356.688 242.536C356.068 243.836 355.51 245.111 355.485 246.585C355.458 248.19 353.034 248.208 353.061 246.602C353.094 244.673 353.774 242.996 354.586 241.291C355.274 239.847 357.372 241.098 356.688 242.536ZM369.813 210.199C371.11 209.295 372.337 211.449 371.052 212.344C370.01 213.07 368.967 213.796 367.925 214.522C366.629 215.425 365.402 213.271 366.687 212.376C367.729 211.65 368.771 210.924 369.813 210.199ZM312.304 266.977C312.092 268.564 309.752 267.902 309.962 266.33C310.286 263.901 310.685 261.503 311.308 259.135C311.716 257.585 314.058 258.23 313.65 259.782C313.027 262.15 312.627 264.548 312.304 266.977ZM304.004 295.615C302.444 295.592 302.426 293.097 303.987 293.12C305.399 293.141 306.79 293.514 308.154 293.854C309.671 294.233 309.042 296.643 307.526 296.264C306.373 295.977 305.198 295.633 304.004 295.615ZM301.267 353.206C300.733 353.479 300.185 353.724 299.645 353.983C298.564 354.501 297.483 355.02 296.403 355.54C294.152 356.623 291.902 357.709 289.655 358.799C285.155 360.981 280.621 363.088 276.111 365.247C271.511 367.449 266.924 369.679 262.343 371.921C260.185 372.977 258.01 373.995 255.839 375.023C253.983 375.903 251.692 377.433 249.649 377.59C249.544 377.598 249.508 377.462 249.567 377.391C250.333 376.482 251.561 375.947 252.572 375.353C253.605 374.745 254.657 374.173 255.704 373.592C257.888 372.382 260.074 371.181 262.278 370.012C266.689 367.676 271.108 365.356 275.527 363.039C280.035 360.676 284.537 358.297 289.085 356.017C291.226 354.943 293.369 353.872 295.514 352.804C296.676 352.226 297.838 351.649 299.001 351.073C299.503 350.824 300 350.556 300.513 350.332C301.196 350.036 301.716 350.092 302.421 349.908C303.57 349.607 304.079 351.11 303.2 351.773C302.476 352.318 302.096 352.783 301.267 353.206ZM285.265 378.901C285.012 378.281 285.527 377.521 286.1 377.361C286.787 377.169 287.342 377.596 287.597 378.222C288.273 379.881 289.23 381.401 290.458 382.682C291.554 383.826 289.854 385.603 288.756 384.458C287.218 382.852 286.108 380.971 285.265 378.901ZM273.083 338.937C271.97 337.808 273.672 336.032 274.784 337.162L277.948 340.373C279.061 341.502 277.359 343.278 276.246 342.149L273.083 338.937ZM240.82 333.89C238.566 334.587 235.937 335.232 234.411 337.226C234.336 337.324 234.209 337.2 234.254 337.103C236.196 332.883 241.838 331.368 245.741 329.868C248.502 328.806 251.337 327.922 254.195 327.13C253.886 323.768 254.65 320.158 254.902 316.809C255.17 313.234 255.383 309.649 255.481 306.064C255.58 302.406 255.585 298.725 255.443 295.068C255.301 291.425 254.817 287.829 254.59 284.198C254.568 283.847 255.043 283.827 255.148 284.117C256.361 287.479 256.895 291.208 257.306 294.759C257.731 298.418 257.888 302.067 257.863 305.75C257.837 309.536 257.649 313.314 257.382 317.09C257.255 318.88 257.106 320.668 256.966 322.456C256.859 323.821 256.814 325.175 256.553 326.497C258.278 326.049 260.006 325.624 261.73 325.211C267.224 323.894 272.743 322.669 278.214 321.249C280.899 320.552 283.546 319.721 286.219 318.98C288.736 318.283 291.392 317.441 293.979 317.12C294.902 317.005 295.029 318.305 294.42 318.751C292.326 320.287 289.539 321.365 287.114 322.233C284.681 323.104 282.149 323.737 279.653 324.387C274.448 325.743 269.192 326.859 263.944 328.02C258.703 329.179 253.452 330.33 248.273 331.752C245.778 332.437 243.292 333.124 240.82 333.89ZM227.981 267.23C226.638 268.055 225.404 265.906 226.743 265.084C228.495 264.009 230.365 263.198 232.25 262.405C233.696 261.798 234.337 264.207 232.911 264.807C231.217 265.519 229.556 266.264 227.981 267.23ZM223.739 359.954C222.391 360.771 221.157 358.623 222.501 357.809C224.388 356.665 226.458 355.896 228.414 354.893C229.806 354.179 231.048 356.324 229.652 357.039C227.696 358.042 225.626 358.81 223.739 359.954ZM221.176 307.354C222.493 308.624 224.243 309.214 225.894 309.875C227.333 310.45 226.721 312.867 225.266 312.285C223.209 311.462 221.115 310.712 219.474 309.13C218.333 308.029 220.037 306.256 221.176 307.354ZM235.152 235.798C236.595 236.369 235.982 238.785 234.525 238.209C232.909 237.569 231.242 237.086 229.626 236.446C228.184 235.876 228.797 233.46 230.254 234.036C231.869 234.675 233.537 235.159 235.152 235.798ZM260.487 207.239C262.013 206.963 262.681 209.363 261.148 209.641C259.246 209.985 257.374 210.385 255.574 211.116C254.12 211.707 253.477 209.298 254.913 208.715C256.713 207.984 258.586 207.583 260.487 207.239ZM269.403 276.284C267.997 275.584 269.211 273.425 270.611 274.121C272.086 274.855 273.613 275.419 275.219 275.76C276.749 276.084 276.115 278.493 274.592 278.17C272.784 277.787 271.061 277.109 269.403 276.284ZM277.1 237.303C278.606 236.868 279.261 239.27 277.761 239.705C275.123 240.469 272.404 240.875 269.746 241.557C268.231 241.946 267.572 239.544 269.085 239.156C271.743 238.474 274.462 238.068 277.1 237.303ZM310.815 224.854C312.352 225.135 311.715 227.544 310.188 227.264C308.563 226.966 306.918 226.973 305.273 226.983C303.711 226.994 303.696 224.499 305.255 224.488C307.125 224.476 308.97 224.516 310.815 224.854ZM421.142 237.122C417.18 236.76 413.212 236.476 409.238 236.269C409.053 236.261 408.872 236.25 408.686 236.242C408.665 236.198 408.638 236.158 408.61 236.114C407.3 234.165 406.332 232.213 405.489 230.005C404.684 227.902 403.902 225.734 402.671 223.84C401.267 221.682 399.38 219.999 397.315 218.544C396.074 219.415 394.924 220.434 393.873 221.512C392.767 222.647 391.04 220.895 392.147 219.76C393.081 218.801 394.079 217.915 395.134 217.114C393.904 216.356 392.648 215.644 391.423 214.936C386.833 212.283 382.135 209.832 377.342 207.595C375.114 206.553 372.859 205.63 370.589 204.695C369.368 204.192 368.161 203.542 366.939 202.958C367.02 202.072 366.756 201.082 366.091 200.503C365.601 200.079 365.221 199.923 364.637 199.625C364.506 199.579 364.427 199.551 364.391 199.536C364.418 199.542 364.497 199.566 364.627 199.609C364.938 199.754 364.962 199.71 364.7 199.481C364.681 198.976 363.707 197.916 363.482 197.397C362.7 195.615 362.448 193.727 361.3 192.107C359.719 189.875 357.083 189.045 354.637 189.823C354.364 187.127 354.278 184.312 353.273 181.911C353.246 181.846 353.158 181.818 353.119 181.89C352.101 183.703 352.027 185.715 351.963 187.799C351.901 189.755 351.987 191.753 352.249 193.694C352.093 193.82 351.933 193.94 351.767 194.056C350.989 194.592 350.15 195.006 349.267 195.315C347.587 195.901 345.822 196.162 344.057 196.262C339.499 196.518 334.796 196.077 330.307 195.303C325.766 194.521 318.804 193.347 314.753 191.039C312.079 189.517 309.609 187.653 307.106 185.849C307.988 182.849 308.196 179.629 307.269 177.106C307.158 176.804 306.697 176.752 306.612 177.111C306.059 179.529 305.909 181.956 305.168 184.347C305.157 184.381 305.145 184.419 305.133 184.453C304.895 184.29 304.658 184.129 304.421 183.969C303.873 183.601 303.132 183.884 302.809 184.416C297.635 192.939 289.353 193.483 280.662 195.059C271.151 196.784 261.594 198.64 252.461 201.951C243.727 205.118 235.39 209.698 228.808 216.499C227.318 218.039 225.926 219.678 224.613 221.388C225.896 221.546 227.169 221.796 228.426 222.193C229.915 222.663 229.293 225.075 227.799 224.603C226.183 224.093 224.551 223.846 222.903 223.729C218.443 230.103 214.981 237.319 211.993 244.419C206.262 258.032 202.571 272.513 200.928 287.241C201.882 286.643 202.854 286.073 203.849 285.543C205.233 284.806 206.473 286.951 205.088 287.689C203.549 288.508 202.056 289.409 200.61 290.385C200.02 296.831 199.819 303.316 200.013 309.788C200.474 325.216 202.608 341.085 207.288 355.776C209.584 362.986 212.608 370.133 217.083 376.208C219.108 378.96 221.404 381.439 224.102 383.501C225.409 384.502 226.791 385.394 228.247 386.145C230.123 387.117 232.561 387.425 234.183 388.807C234.716 389.263 235.13 389.864 235.443 390.545C235.274 391.844 235.261 393.144 235.616 394.439C235.728 394.844 236.027 395.173 236.395 395.329C236.401 395.441 236.402 395.55 236.403 395.656C236.403 395.706 236.476 395.718 236.485 395.669C236.499 395.572 236.514 395.475 236.528 395.375C236.647 395.415 236.771 395.433 236.898 395.432C241.5 395.418 246.107 395.27 250.714 395.077C250.35 393.956 249.956 392.845 249.578 391.724C249.064 390.201 251.401 389.536 251.911 391.045C252.353 392.355 252.815 393.654 253.228 394.969C258.164 394.746 263.098 394.485 268.024 394.283C278.501 393.851 288.977 393.66 299.457 393.36C315.733 392.892 332.125 392.051 348.434 392.649C348.989 391.413 349.612 390.205 350.202 388.986C350.898 387.547 352.997 388.797 352.303 390.231C351.893 391.078 351.468 391.914 351.065 392.76C354.368 392.914 357.668 393.124 360.962 393.419C366.583 393.923 372.152 394.848 377.767 395.408C383.476 395.979 389.056 395.832 394.709 394.822C395.726 394.641 396.321 394.003 396.564 393.216C396.573 393.212 396.579 393.206 396.585 393.197C396.873 392.845 397.144 392.554 397.424 392.299C397.759 392.072 398.121 391.879 398.547 391.708C399.342 391.39 400.171 391.194 401.012 391.061C401.938 390.911 402.877 390.892 403.803 390.767C404.584 390.659 405.347 390.5 406.109 390.308C407.479 389.962 408.779 389.513 410.071 388.921C411.198 388.405 412.213 387.668 413.172 386.866C415.155 385.352 416.868 383.425 418.363 381.425C419.234 380.256 420.052 379.043 420.795 377.781C422.089 375.595 423.188 373.326 424.299 371.039C424.703 370.36 425.072 369.666 425.408 368.957C423.201 368.305 420.973 367.776 418.638 367.753C417.077 367.738 417.06 365.243 418.621 365.258C421.299 365.284 423.837 365.91 426.359 366.66C426.479 366.324 426.594 365.985 426.701 365.642C426.996 364.926 427.239 364.191 427.44 363.448C427.558 363.11 427.677 362.772 427.796 362.435C428.061 361.266 428.325 360.095 428.593 358.924C429.128 357.049 429.548 355.146 429.853 353.22C430.111 351.952 430.308 350.675 430.438 349.383C430.841 346.252 431.165 343.128 431.167 339.965C431.117 338.017 430.982 336.071 430.763 334.136C430.666 332.821 430.508 331.512 430.299 330.213C430.025 328.281 429.755 326.368 429.308 324.463C428.975 323.174 428.642 321.885 428.309 320.596C427.481 317.911 426.508 315.278 425.39 312.707C425.329 312.546 425.02 312.192 424.836 312.19C424.696 312.188 424.503 312.32 424.568 312.495C424.574 312.51 424.58 312.529 424.587 312.544C424.522 312.398 424.46 312.249 424.396 312.103C424.34 311.966 424.126 311.693 423.963 311.697C423.954 311.697 423.944 311.698 423.932 311.7C423.975 311.669 424.014 311.628 424.053 311.581C425.131 310.248 425.825 308.5 426.593 306.96C427.229 305.689 427.829 304.35 427.995 302.918C428.14 301.66 427.923 300.423 427.15 299.412C426.269 298.261 424.623 297.73 425.523 296.052C426.546 294.142 428.059 292.482 426.526 290.331C425.746 289.236 424.518 288.64 423.602 287.688C422.549 286.588 422.042 285.11 422.059 283.598C422.123 283.635 422.207 283.616 422.237 283.522C423.097 280.784 422.44 277.788 421.521 275.134C421.02 273.694 419.978 273.305 418.769 273.242C423.931 262.68 428.756 251.952 433.046 240.981C433.189 240.622 433.328 240.262 433.468 239.903C433.677 239.365 433.223 238.654 432.704 238.539C428.924 237.714 424.989 237.47 421.142 237.122Z" fill="black"/>
<path fill-rule="evenodd" clip-rule="evenodd" d="M376.308 107.066C375.523 97.4831 376.567 87.4259 372.92 78.3376C366.566 63.2604 349.01 58.3405 335.386 52.6782C329.933 51.0573 311.62 50.9527 305.233 48.8016C290.777 43.9332 287.291 38.0372 275.898 47.5771C273.975 49.2066 272.777 50.9714 271.91 53.3773L271.947 53.3873C271.702 54.3895 271.979 55.3859 272.552 56.1445C267.62 61.4176 265.596 69.286 268.193 76.2418C276.638 94.331 276.315 104.146 273.77 123.673C270.397 141.91 278.441 148.508 291.757 158.325C291.225 159.408 291.123 160.842 291.833 161.789C307.305 183.887 336.26 194.288 360.928 182.846C370.941 178.165 375.349 167.099 377.839 157.124C380.742 145.955 381.577 134.2 379.071 122.861C378.056 117.615 376.744 112.409 376.308 107.066Z" fill="#AE5D29"/>
<path fill-rule="evenodd" clip-rule="evenodd" d="M266.407 80.6293L275.558 86.8251L307.914 51.144L297.004 42.4107C297.004 42.4107 277.425 57.5537 273.582 61.5411C269.739 65.5285 266.407 80.6293 266.407 80.6293Z" fill="#9FD8E5"/>
<path fill-rule="evenodd" clip-rule="evenodd" d="M287.214 1.45349C289.071 1.15257 290.484 2.33279 291.163 4.00541L291.199 4.09548C291.418 4.66469 291.66 5.21815 291.921 5.76212C296.558 3.37525 303.201 3.93415 306.179 8.68207C308.303 12.073 307.05 16.1236 306.283 19.7405L305.779 22.1236C306.789 22.7765 307.555 23.9528 307.528 25.1766L307.524 25.2708L307.336 28.5905C308.002 27.8841 308.61 27.1158 309.152 26.2981C309.525 25.5813 309.928 24.8767 310.362 24.1938C312.913 20.1747 318.726 23.6118 316.628 27.9116C316.225 28.7408 315.771 29.5268 315.284 30.2849C314.735 31.4021 314.287 32.5498 313.944 33.728C314.954 34.1732 315.735 35.172 315.827 36.6871C316.042 40.2254 314.261 43.1912 311.408 45.0667C310.568 45.6183 309.698 45.7304 308.908 45.5332C308.77 45.7275 308.632 45.9218 308.5 46.1192C309.65 47.0687 310.688 48.1531 311.583 49.3569C314.246 48.9268 316.927 48.7148 319.608 48.6899C322.874 47.0112 326.798 47.0182 330.325 47.6144C332.595 47.9978 334.777 48.7592 337.012 49.302C339.368 49.8719 341.757 49.8772 344.139 50.2598C347.141 50.7411 349.781 52.1511 351.451 54.4194C353.268 54.4629 355.184 55.2168 356.776 56.2474C360.481 58.6481 364.165 61.0832 367.861 63.4995C369.28 64.4272 369.818 65.9201 369.57 67.5912L369.553 67.6981L369.434 68.3913L369.728 68.8154C370.866 70.4478 372.103 72.1573 372.844 73.9627C374.206 75.9586 375.439 78.0521 376.534 80.212C378.008 83.1147 379.23 86.1938 380.065 89.3567C380.273 90.1568 380.481 90.9631 380.62 91.7792C380.818 92.9318 380.531 93.8289 380.379 94.9371C380.189 96.3419 380.126 97.7645 379.924 99.1724C379.789 100.106 379.024 100.57 378.22 100.6C378.539 102.971 378.773 105.359 378.998 107.727C379.315 111.112 379.538 114.507 379.734 117.902C380.632 119.227 382.456 120.269 383.771 120.625C385.592 121.114 387.492 120.555 389.205 119.904C390.282 119.494 391.177 120.888 390.658 121.827C389.024 124.777 385.487 124.789 382.799 123.507C381.662 122.966 380.662 122.178 379.917 121.147C379.969 122.132 380.024 123.118 380.08 124.106L380.131 125.001C380.748 135.455 381.999 146.263 380.166 156.631C376.993 174.589 362.699 188.345 345.13 189.528C335.911 190.148 328.21 187.391 324.38 185.85C320.55 184.309 322.012 181.103 324.67 181.998C329.248 183.54 337.655 185.827 345.157 184.762C362.839 182.253 377.783 173.024 375.968 133.734C375.711 128.162 374.999 122.591 374.815 117.019C374.638 111.572 374.652 106.12 374.381 100.677L374.29 98.8195C374.184 96.6493 374.072 94.4691 373.9 92.2968C373.703 91.4561 373.54 90.6027 373.302 89.7779C372.654 87.5338 371.814 85.3534 370.774 83.2741C370.549 83.4535 370.296 83.5831 370.021 83.6349C367.934 84.0361 365.975 83.9406 364.012 83.056C363.096 82.6475 362.288 82.1011 361.534 81.4234C361.175 81.1046 360.934 80.7944 360.744 80.4714C359.798 80.4936 358.85 80.207 358.252 79.5094C357.571 78.7143 357.453 77.8891 357.712 77.1225L357.739 77.046L357.673 77.0215C356.889 79.1571 355.312 81.0424 353.577 82.3207C350.833 84.3482 347.388 84.9523 344.081 85.0283C340.429 85.1098 336.573 84.5564 332.966 83.9889C332.012 83.8396 331.065 83.6684 330.135 83.4347C330.099 83.4724 330.063 83.5163 330.024 83.554C326.952 86.6286 322.607 87.4447 318.671 85.7287C316.397 84.7371 314.484 83.1286 312.79 81.2816C312.773 82.2548 312.731 83.2281 312.656 84.1924L312.625 84.5753C312.47 86.3712 312.161 88.2772 310.855 89.5816C308.744 91.6952 305.655 90.8746 303.194 89.5257C303.197 89.5912 303.198 89.6598 303.198 89.7284C303.876 92.044 304.557 94.3628 305.239 96.6815L305.385 97.1755C305.881 98.8218 306.422 100.47 306.58 102.196C306.881 105.493 304.775 108.767 301.212 107.684C299.343 107.119 297.838 105.512 296.396 104.226L295.487 103.427C297.878 111.291 299.556 119.441 299.764 127.664C299.776 128.11 299.407 128.449 298.995 128.468C298.034 128.515 296.999 128.326 296.029 127.936C295.974 127.934 295.92 127.931 295.862 127.922C294.21 127.687 292.673 127.083 291.315 126.185C291.634 127.203 291.781 128.296 291.707 129.441C291.688 129.719 291.268 129.819 291.205 129.514C290.398 125.561 285.888 122.602 282.023 123.387C277.875 124.229 274.841 127.937 274.12 132.137C273.347 136.649 274.923 141.849 277.798 145.307C279.121 146.9 280.856 148.226 282.908 148.549C283.847 148.695 284.82 148.635 285.728 148.355C286.114 148.233 286.476 148.066 286.843 147.907C287.38 147.679 288.009 147.64 288.515 147.4C289.663 146.858 290.829 147.945 290.254 149.168C289.753 150.235 289.301 150.956 288.462 151.511C289.151 152.367 289.779 153.56 290.011 153.879C291.195 155.505 292.397 157.041 293.744 158.525C295.115 160.032 296.609 161.406 298.187 162.677L298.85 163.21C300.37 164.436 301.694 165.572 302.773 167.339C303.623 168.733 302.548 170.64 300.972 170.629C296.044 170.592 292.43 166.151 289.852 162.267C289.485 161.711 289.139 161.124 288.818 160.521C288.704 160.712 288.578 160.891 288.437 161.054L288.724 161.832C289.574 164.121 285.99 165.646 284.932 163.511C284.163 161.963 283.273 160.491 282.283 159.101C281.705 159.021 281.137 158.663 280.82 158.197C280.016 157.015 279.116 155.82 278.355 154.559C277.935 154.154 277.503 153.764 277.062 153.383C276.935 153.499 276.806 153.616 276.683 153.738C276.142 155.036 275.47 156.223 274.634 157.342L274.455 157.581C272.854 159.693 270.764 161.858 268.163 162.389C267.369 162.551 266.597 161.536 267.297 160.88C269.108 159.177 271.256 158.011 272.923 156.113C273.745 155.177 274.498 154.148 275.145 153.071L275.292 152.822C275.4 152.637 275.51 152.452 275.624 152.264C274.861 151.736 274.099 151.205 273.336 150.674C271.26 152.529 268.545 153.39 266.245 154.931L266.017 155.088C263.938 156.543 261.715 153.371 263.377 151.61C265.21 149.676 266.736 147.374 268.357 145.227C267.577 143.771 267.201 142.045 267.053 140.3C266.996 139.806 266.95 139.312 266.905 138.817C265.732 138.844 264.55 138.437 263.547 137.73L263.167 137.455C261.958 137.863 260.686 138.065 259.468 138.039C256.601 137.972 255.405 134.603 257.183 132.454C258.996 130.258 262.195 129.759 264.739 130.801C264.82 130.757 264.904 130.71 264.986 130.662C264.861 130.09 264.884 129.569 265.018 129.111L264.976 128.832C264.413 127.953 264.039 126.948 263.892 125.884C263.776 125.041 263.793 124.205 263.977 123.37C264.037 123.093 264.166 122.805 264.264 122.515C264.055 121.979 263.929 121.425 263.888 120.867C263.83 120.797 263.772 120.724 263.717 120.646C262.446 118.832 262.685 116.634 263.872 115.15C263.877 115.056 263.885 114.962 263.897 114.869C263.825 114.707 263.76 114.543 263.7 114.377C262.521 113.167 261.652 111.708 261.799 109.891C261.886 108.822 262.305 107.857 262.944 107.134C262.828 106.786 262.814 106.382 262.95 106.044C261.902 103.23 262.009 99.8314 262.727 96.6711C262.56 96.192 262.472 95.6718 262.486 95.1197C262.555 92.777 264.505 90.6115 266.833 90.6234C267.113 90.624 267.376 90.6599 267.628 90.7133L267.631 90.6575C267.716 89.9539 267.899 89.303 268.168 88.7182C268.033 88.669 267.908 88.5978 267.798 88.5028C266.312 89.334 264.738 89.9724 263.086 90.4115C261.872 90.7343 260.615 89.3162 261.364 88.1327C261.711 87.5836 262.095 87.09 262.509 86.6386C261.916 86.6462 261.314 86.6919 260.705 86.7769C259.612 86.931 258.385 86.1692 257.667 85.1325C256.791 86.0244 255.911 86.9131 255.031 87.8018C252.804 90.0597 249.403 88.4335 249.029 85.4795C248.359 85.3001 247.734 84.9926 247.184 84.5504C243.658 86.1592 239.858 87.0558 235.968 87.2481C233.175 87.386 231.519 84.0417 232.809 81.6625C233.675 80.0659 234.753 78.63 235.999 77.3801C234.056 78.008 232.049 78.4648 229.998 78.7628C228.89 78.9233 227.314 77.9862 226.862 76.9383C225.135 72.9083 225.251 68.6941 227.18 64.7479C227.254 64.5915 227.338 64.4412 227.419 64.2909C227.618 63.7687 227.835 63.2526 228.07 62.7457C225.646 60.174 225.41 56.3271 226.685 53.0965C226.159 52.23 225.952 51.1836 226.299 50.2331C227.287 47.4973 228.721 44.9674 230.538 42.7903C230.36 42.4422 230.203 42.0722 230.07 41.6739C229.017 38.4533 230.184 34.5499 232.578 32.2846C234.083 30.8582 235.818 29.9979 237.674 29.4423C238.447 28.0086 239.445 26.7136 240.61 25.6201C240.655 25.5169 240.699 25.4137 240.75 25.3104C242.551 21.7487 245.864 19.8233 249.425 19.3588C249.555 17.9701 250.452 16.6384 251.768 16.1988C252.122 14.9956 252.655 13.8442 253.392 12.7974C254.55 11.1489 256.489 10.362 258.328 11.4252C259.336 12.0077 260.302 12.6777 261.208 13.4199C261.612 13.2214 262.07 13.0915 262.587 13.0475L262.717 13.0383L265.697 12.8617C266.942 12.2823 268.183 11.6749 269.428 11.083C270.173 10.4385 271.007 9.8994 271.917 9.49699C272.948 9.04385 274.004 8.78389 275.065 8.69232C275.925 8.39631 276.79 8.13455 277.672 7.92883C279.743 7.44663 281.911 7.16959 284.064 7.17647C284.104 6.60145 284.122 6.01971 284.114 5.43127L284.107 5.1365C284.046 3.25007 285.496 1.73364 287.214 1.45349ZM286.173 152.425C285.878 152.492 285.579 152.547 285.28 152.587C285.372 152.817 285.464 153.047 285.554 153.277C285.796 153.416 286.042 153.548 286.288 153.671C286.212 153.248 286.167 152.821 286.173 152.425ZM270.608 147.771L270.409 148.155C270.377 148.217 270.346 148.279 270.315 148.34C270.741 148.303 271.17 148.309 271.594 148.356L271.592 148.31C271.537 148.291 271.483 148.274 271.431 148.248C271.138 148.105 270.865 147.945 270.608 147.771ZM278.882 130.295C281.557 130.437 283.826 130.844 286.267 132.034L286.477 132.138C288.634 133.224 292.204 135.233 291.925 138.151C291.846 138.981 291.268 139.858 290.349 139.799C287.829 139.639 286.372 137.029 284.656 135.407C282.924 133.772 280.799 132.093 278.708 130.976C278.412 130.818 278.525 130.313 278.845 130.295L278.882 130.295ZM266.485 91.9606C265.845 91.9869 266.064 92.6279 266.39 92.0892C266.416 92.0453 266.449 92.0014 266.485 91.9606ZM300.784 48.8325C294.715 49.0393 288.632 52.7789 284.111 56.5475C280.177 59.8261 276.788 63.7169 273.793 67.906C273.029 69.9871 272.375 72.1109 271.826 74.2495C271.464 75.6617 271.241 77.0885 270.939 78.5128L270.846 78.9494C270.604 79.4227 270.426 79.9313 270.297 80.4565C270.852 81.0227 271.57 81.426 272.359 81.6142C272.613 81.6748 272.825 81.8084 272.992 81.9862C273.619 80.8909 274.164 79.7357 274.478 78.5128L274.49 78.4563C275.693 76.3899 277.002 74.3866 278.407 72.451C282.282 67.1066 286.557 62.2304 291.708 58.162C295.614 55.0785 299.987 52.6529 304.644 51.0643C303.495 50.1214 302.192 49.3782 300.784 48.8325Z" fill="black"/>
<path fill-rule="evenodd" clip-rule="evenodd" d="M356.519 164.09C354.292 164.771 351.897 164.848 349.617 164.176C347.55 163.567 345.421 162.21 343.89 160.405C342.53 158.802 341.643 156.849 341.662 154.757C341.665 154.518 341.746 154.318 341.873 154.162C342.009 153.995 342.2 153.879 342.405 153.828C342.617 153.775 342.84 153.792 343.031 153.88C343.204 153.959 343.353 154.095 343.446 154.294C343.682 154.608 343.917 154.918 344.152 155.218C346.045 157.59 347.875 159.36 350.701 159.98C352.234 160.316 353.762 160.152 355.162 159.613C356.66 159.036 358.01 158.03 359.065 156.748C359.542 156.168 360.108 155.929 360.663 155.921C361.292 155.912 361.916 156.209 362.387 156.686C362.851 157.156 363.164 157.796 363.196 158.468C363.225 159.057 363.042 159.674 362.549 160.227C360.924 162.049 358.811 163.39 356.519 164.09ZM356.243 134.217C358.541 135.633 362.05 138.946 359.613 142.512C356.738 145.661 352.542 142.103 350.476 140.494C348.561 139.25 346.442 142.499 348.22 143.955C363.151 155.171 369.036 134.503 357.388 132.526C356.106 132.308 355.641 133.779 356.243 134.217ZM334.798 128.067C334.059 127.588 333.193 127.428 332.238 127.884C331.491 128.239 330.185 129.418 329.282 130.961C328.663 132.016 328.228 133.253 328.33 134.537C328.353 134.835 328.248 135.056 328.08 135.22C327.947 135.349 327.755 135.445 327.529 135.476C327.337 135.502 327.122 135.481 326.946 135.426C326.613 135.322 326.435 135.101 326.368 134.92C325.715 133.174 325.978 131.219 326.683 129.452C327.635 127.067 329.379 125.063 330.527 124.413C332.491 123.3 334.817 123.233 336.799 124.339C338.486 125.281 339.548 126.813 340.604 128.374C340.828 128.706 341.051 129.035 341.281 129.359C341.743 130.007 341.793 130.653 341.619 131.209C341.428 131.824 340.932 132.346 340.309 132.621C339.733 132.876 339.063 132.916 338.468 132.662C337.966 132.448 337.503 132.027 337.207 131.31C336.709 130.102 335.883 128.771 334.798 128.067ZM372.162 130.504C371.66 130.777 371.267 130.861 370.707 130.693C370.397 130.6 370.091 130.419 369.85 130.174C369.611 129.932 369.438 129.63 369.37 129.294C369.2 128.465 368.754 127.691 368.121 127.188C367.581 126.759 366.901 126.534 366.149 126.669C365.338 126.814 364.568 127.356 364.04 127.991C363.863 128.204 363.725 128.445 363.586 128.685C363.327 129.133 363.074 129.549 362.715 129.88C362.578 130.005 362.372 130.093 362.172 130.094C362.09 130.095 362.008 130.082 361.929 130.057C361.115 129.228 360.955 128.595 360.976 127.967C360.999 127.308 361.247 126.639 361.65 126.014C362.597 124.547 364.405 123.337 365.629 123.057C367.305 122.674 368.975 123.109 370.318 124.064C371.7 125.048 372.73 126.582 373.06 128.318C373.139 128.735 373.11 129.187 372.958 129.58C372.809 129.964 372.548 130.293 372.162 130.504ZM338.392 112.474C337.392 113.491 336.201 113.656 334.995 113.804C334.326 113.886 333.791 113.953 333.265 114.079C331.821 114.425 330.394 114.942 329.094 115.68C327.735 116.452 326.255 117.382 325.194 118.567C324.941 118.849 324.704 119.145 324.466 119.441C324.249 119.712 324.039 119.972 323.819 120.223C323.566 120.511 323.325 120.813 323.086 121.115C322.939 121.368 322.91 121.431 322.88 121.496C322.836 121.593 322.784 121.703 322.725 121.82C322.644 121.98 322.549 122.156 322.449 122.315C322.283 122.607 322.194 122.687 322.116 122.723C321.988 122.783 321.866 122.813 321.747 122.798C321.635 122.784 321.53 122.73 321.426 122.641C320.905 122.195 320.748 121.457 320.758 120.674C320.773 119.485 321.19 118.165 321.577 117.353C322.478 115.466 323.731 113.503 325.244 112.089C326.97 110.475 328.863 109.248 331.041 108.398C332.395 107.869 333.963 107.381 335.441 107.431C336.506 107.467 337.524 107.785 338.369 108.593C338.888 109.088 339.14 109.797 339.145 110.506C339.15 111.23 338.898 111.96 338.392 112.474ZM374.148 121.478C374.085 121.586 373.997 121.661 373.898 121.707C373.795 121.754 373.68 121.769 373.569 121.75C373.458 121.732 373.353 121.681 373.269 121.603C373.189 121.528 373.128 121.428 373.1 121.306C372.41 118.287 371.096 116.046 368.314 114.615C366.945 113.911 365.374 113.468 363.888 113.117C363.456 113.015 362.999 112.95 362.54 112.884C361.1 112.678 359.65 112.441 358.703 111.25C358.133 110.533 357.89 109.613 358.018 108.769C358.139 107.974 358.585 107.243 359.401 106.801C361.433 105.701 363.975 106.749 366.041 107.642C366.194 107.708 366.345 107.773 366.492 107.836C368.512 108.697 370.358 109.84 371.879 111.481C373.086 112.784 374.21 114.714 374.671 116.704C375.055 118.36 374.979 120.053 374.148 121.478Z" fill="black"/>
</svg>
