<svg width="169" height="198" viewBox="0 0 169 198" fill="none" xmlns="http://www.w3.org/2000/svg">
<g clip-path="url(#clip0)">
<path fill-rule="evenodd" clip-rule="evenodd" d="M132.51 133.563C132.043 132.175 132.725 130.79 133.104 129.447C134.449 124.789 135.917 120.13 137.995 115.786C138.782 114.333 137.487 112.55 135.987 112.96C133.419 113.349 130.77 113.04 128.197 112.868C127.256 110.234 124.745 109.142 122.768 107.625C120.525 106.11 118.343 104.371 116.011 103.043C115.881 101.788 114.475 101.477 113.615 102.375C111.253 100.785 108.421 101.08 105.89 100.039C103.966 96.6751 103.822 93.1378 103.312 89.8925C103.09 88.4779 103.326 87.113 102.433 85.8517C99.4314 81.2847 87.5722 79.3045 83.1998 82.0109C80.8461 80.4228 80.7895 83.299 80.4156 85.0741C80.0001 85.9623 79.7753 86.968 79.8448 88.0277C77.3166 93.7407 71.5327 96.3235 66.3527 98.4157C65.7029 97.7392 64.7742 97.8247 64.1559 98.3845C59.6661 99.4405 55.3085 101.297 51.5468 104.195C47.273 105.547 44.2631 109.308 42.0867 113.34C41.8469 113.765 41.7903 114.199 41.8604 114.597C35.1675 125.211 31.9731 137.918 31.5245 150.752C27.2205 153.547 33.5702 178.652 35.0483 183.863C35.0498 183.863 35.0513 183.862 35.0528 183.861C36.0117 185.698 37.1006 190.939 39.5005 190.534C41.1468 192.548 43.7703 192.152 46.0043 192.307C45.6404 193.817 45.8192 195.544 46.2523 197.037C46.7645 198.813 49.2781 198.873 49.6345 196.936C71.8818 201.613 94.7086 197.882 117.206 198.583C123.711 198.633 130.215 198.851 136.704 199.352C137.618 199.423 138.544 198.413 138.482 197.429C137.087 181.37 135.776 160.245 134.216 144.344C133.846 140.718 133.554 137.051 132.51 133.563Z" fill="white"/>
<path fill-rule="evenodd" clip-rule="evenodd" d="M80.7826 83.002C80.8464 82.8137 81.1064 82.8387 81.1113 83.0502C81.2138 87.5653 80.1748 93.0829 76.8353 96.1328C75.121 97.6983 72.8546 98.4148 70.7732 99.2381L70.5384 99.3318L66.8612 100.814C65.8859 101.207 64.8338 101.812 63.9723 101.256C64.6694 103.127 65.2546 105.048 66.1037 106.851C67.1605 109.095 68.4383 111.148 70.0021 113.015C76.1977 120.412 86.003 122.668 94.8021 120.501C99.3331 119.385 103.742 117.27 106.833 113.412C109.183 110.479 110.532 106.543 110.851 102.661C110.758 102.677 110.66 102.676 110.56 102.652C109.447 102.39 108.323 101.744 107.343 101.111L107.249 101.05C106.306 100.436 105.324 99.7323 104.647 98.7785C103.975 97.8313 103.27 94.7415 103.27 94.7415C103.078 93.5803 102.898 91.2669 102.929 90.0931C102.932 89.9823 103.386 89.917 103.434 90.0321C103.854 91.0286 103.99 93.2181 104.314 94.2552L104.379 94.4623C104.725 95.5453 105.022 96.864 105.739 97.7396C107.085 99.3837 109.117 100.08 110.93 100.904C111.06 99.046 113.804 99.0893 113.769 101.027C113.767 101.132 113.763 101.237 113.759 101.342C113.976 101.47 114.184 101.618 114.378 101.76L114.568 101.899C115.286 102.428 116.01 102.93 116.775 103.378C118.255 104.247 119.823 104.935 121.34 105.723C122.875 106.521 124.31 107.471 125.651 108.608C126.28 109.142 126.884 109.711 127.456 110.315L127.612 110.481C128.157 111.068 128.866 111.724 129.176 112.496C129.244 112.666 129.587 113.062 129.773 113.075C132.656 113.279 135.532 113.568 138.397 114.001C139.138 114.113 139.431 114.526 139.157 115.195C138.215 117.493 134.528 126.671 133.547 129.134C133.661 130.943 133.507 133.074 133.61 134.883C133.761 137.525 133.959 140.165 134.196 142.799C135.044 152.22 136.329 161.596 137.491 170.976C138.072 175.671 138.602 180.373 139.125 185.075C139.39 187.452 139.614 189.83 139.786 192.217C139.858 193.211 139.923 194.207 139.981 195.202L140.03 196.085C140.099 197.196 140.256 198.258 139.62 199.212C139.332 199.644 138.674 199.888 138.295 199.396C137.819 198.778 137.642 198.317 137.596 197.505C137.561 196.884 137.553 196.26 137.527 195.638C137.47 194.29 137.399 192.942 137.316 191.595C137.15 188.903 136.96 186.212 136.74 183.524C135.97 174.1 134.507 164.747 133.533 155.346C133.042 150.606 132.693 145.858 132.508 141.093C132.416 138.713 132.382 136.333 132.404 133.951C132.412 133.061 132.451 132.176 132.508 131.292C131.049 134.878 129.515 138.43 127.911 141.934L127.531 142.764C126.514 144.979 125.471 147.203 124.249 149.291L124.039 149.647C123.545 150.495 122.869 151.832 121.966 152.1C121.338 152.286 120.57 152.155 119.925 152.142C119.286 152.129 118.645 152.126 118.006 152.098C117.289 152.066 116.605 151.965 115.912 151.762C115.797 151.729 115.688 151.693 115.589 151.646C114.891 152.882 113.705 153.823 112.493 154.372C111.521 154.811 110.503 155.112 109.484 155.391L109.124 155.488C108.031 155.783 106.78 155.923 106.163 157.065L106.02 157.33C105.562 158.172 105.122 158.912 104.364 159.516C103.547 160.167 102.58 160.576 101.616 160.894C100.629 161.22 99.6193 161.469 98.6173 161.736L98.3443 161.81C97.6828 161.989 97.0155 162.153 96.3579 162.348C96.0775 162.431 95.792 162.517 95.5168 162.619C95.1946 162.739 94.9604 162.926 94.7062 163.129C94.4776 163.993 93.501 164.462 92.6979 164.402C92.2762 164.37 91.8979 164.216 91.5536 163.989C90.9527 164.542 90.2912 165.038 89.6787 165.55C88.8211 166.268 87.96 166.981 87.0942 167.687C85.309 169.143 83.5102 170.58 81.6927 171.988C78.4667 174.487 75.1709 176.872 71.8187 179.169C70.421 180.127 69.014 181.083 67.5931 182.016L67.7448 182.077L68.0455 182.2C68.7565 182.487 69.5487 182.951 69.6864 183.848C69.7956 184.56 69.4282 185.051 68.7786 185.138C68.0067 185.241 67.406 184.651 66.9253 184.087C66.7132 183.839 66.4757 183.608 66.2725 183.352C66.1896 183.248 66.126 183.128 66.0699 183.001C64.6677 183.895 63.2505 184.759 61.8109 185.567L61.4505 185.768C57.8805 187.743 54.4058 189.907 50.8054 191.826C49.8663 192.326 48.7212 192.868 47.5276 193.237C47.8444 194.565 47.8395 196.024 47.8475 197.372C47.8551 198.685 45.9254 198.679 45.9662 197.372L45.9858 196.74C46.021 195.678 46.0784 194.576 46.3112 193.543C42.7945 194.174 39.2814 192.803 38.6273 192.391C37.9054 191.937 37.25 191.21 36.7047 190.536C35.5376 189.093 34.7277 187.363 34.0091 185.622C32.47 181.895 31.3795 177.912 30.5823 173.927C27.6431 159.238 28.9073 143.516 33.6805 129.435C34.873 125.917 36.281 122.476 37.8943 119.16L38.0947 118.75C39.7047 115.471 41.494 112.204 43.7669 109.413C46.1344 106.507 49.0549 104.246 52.2346 102.491C53.7864 101.635 55.3832 100.893 57.0151 100.235C57.2773 100.13 57.5412 100.035 57.8057 99.9444C59.5064 98.7714 61.5704 97.6493 63.6352 97.6934C63.7754 97.6961 63.8891 97.7537 63.9739 97.8405C64.0734 97.8593 64.173 97.8822 64.2726 97.9135C64.4927 97.9826 64.725 98.2435 64.6935 98.5115L64.6828 98.6006C64.677 98.6442 64.6696 98.6863 64.657 98.7273C64.7308 98.7392 64.8033 98.7582 64.8742 98.7844C66.8497 98.1809 68.7934 97.2578 70.7211 96.5133L71.1601 96.3455C72.7747 95.7334 74.4311 95.1334 75.7555 93.9219C77.0732 92.7167 78.064 91.1557 78.7803 89.4681C79.6628 87.3889 80.0579 85.1366 80.7826 83.002ZM120.334 192.662C120.725 192.347 121.188 192.712 121.334 193.102C121.814 194.381 121.577 196.368 120.9 197.498C120.198 198.67 118.518 198.207 118.477 196.788C118.435 195.309 119.23 193.551 120.334 192.662ZM124.374 157.351C124.409 157.185 124.648 157.186 124.684 157.351C125.009 158.851 125.002 160.467 125.097 162.006L125.108 162.176C125.223 163.873 125.319 165.574 125.388 167.274C125.523 170.617 125.684 173.961 125.865 177.303C125.955 178.959 126.051 180.616 126.153 182.272C126.474 182.079 126.805 181.909 127.148 181.759C127.661 181.534 128.161 181.508 128.713 181.514C129.385 181.522 129.891 182.161 129.802 182.874C129.705 183.649 129.074 183.982 128.419 183.871C127.693 183.748 126.963 183.557 126.23 183.479C126.312 184.759 126.397 186.039 126.486 187.319C126.604 189.013 126.759 190.705 126.868 192.399C126.878 192.561 126.889 192.723 126.901 192.885C127.338 192.639 127.802 192.513 128.328 192.358L128.465 192.317C129.229 192.08 130.046 191.751 130.753 192.307C131.228 192.681 131.323 193.295 130.929 193.788C130.332 194.536 129.449 194.391 128.625 194.353L128.181 194.335C127.763 194.317 127.377 194.288 126.991 194.174C127.062 195.278 127.099 196.386 126.974 197.474C126.907 198.062 126.191 198.217 126.002 197.617C125.507 196.049 125.405 194.359 125.224 192.717C125.055 191.183 124.952 189.639 124.841 188.098L124.808 187.636C124.559 184.248 124.36 180.857 124.214 177.462C124.068 174.067 123.981 170.672 123.946 167.274C123.93 165.731 123.954 164.182 124.01 162.639L124.028 162.176C124.092 160.59 124.047 158.906 124.374 157.351ZM59.002 192.912C59.021 192.695 59.1815 192.425 59.4203 192.459C59.6403 192.49 59.8671 192.475 60.0847 192.514C60.372 192.566 60.6032 192.75 60.8703 192.865C61.3046 193.053 61.778 193.15 62.2235 193.304C63.0595 193.592 63.515 194.544 63.1688 195.433C62.8048 196.368 61.89 196.58 61.0996 196.188C60.4766 195.879 60.0122 195.385 59.5933 194.813L59.4746 194.65C59.294 194.404 59.0892 194.13 59.0134 193.833C58.9398 193.542 58.9761 193.207 59.002 192.912ZM99.6152 188.518C100.656 188.359 101.546 188.744 102.509 189.107L102.587 189.137C103.568 189.503 104.999 189.756 105.501 190.842C105.804 191.497 105.569 192.366 104.855 192.56C103.725 192.867 102.712 191.973 101.778 191.372L101.729 191.34C100.827 190.769 99.8961 190.288 99.3202 189.302C99.1665 189.039 99.2998 188.566 99.6152 188.518ZM63.2685 98.9333C62.8514 99.0344 62.4342 99.1238 62.0176 99.2097C60.4324 100.129 58.8939 101.083 57.2573 101.902C55.5209 102.771 53.7909 103.668 52.1415 104.719C48.8092 106.843 46.0622 109.604 43.7923 112.989C39.8714 118.835 36.9548 125.578 34.8675 132.419C34.3312 134.177 33.8512 135.954 33.4266 137.746C34.1773 136.995 35.0661 136.534 36.0627 136.138C36.485 135.971 37.0108 136.254 37.2248 136.65C37.3211 136.827 37.3754 137.003 37.3654 137.212C37.3433 137.672 37.0665 138.194 36.6098 138.285C35.5451 138.498 34.5098 138.911 33.4832 139.275C33.3276 139.33 33.1938 139.309 33.087 139.244C32.0678 143.915 31.4302 148.681 31.2044 153.477C31.0133 157.537 31.1312 161.628 31.5468 165.683C31.8662 165.527 32.1786 165.382 32.5288 165.293C32.983 165.179 33.4298 165.04 33.8728 164.883C35.1513 164.429 35.7345 166.713 34.4277 167.061C33.9414 167.19 33.4521 167.298 32.9565 167.377C32.5247 167.445 32.1426 167.415 31.7355 167.343C32.0465 169.873 32.4714 172.384 33.0126 174.859L33.1321 175.4C33.8351 178.562 34.6544 181.753 35.8394 184.741C36.4206 186.206 37.1902 187.598 38.1403 188.82C38.6072 189.421 39.1253 189.936 39.6904 190.424C40.1608 190.83 41.7598 191.712 43.6535 191.712C45.5473 191.712 46.0599 191.518 47.0154 191.162C48.9049 190.458 50.6989 189.335 52.4709 188.334L52.6541 188.231C53.4377 187.793 54.2183 187.348 54.9968 186.899C54.8984 186.04 55.0706 185.319 55.4841 184.526C55.9312 183.668 57.0389 184.095 57.1212 184.973L57.1238 185.006C57.1363 185.204 57.167 185.406 57.2051 185.607C62.4106 182.522 67.5059 179.221 72.5201 175.781C75.75 173.565 78.9455 171.283 82.0943 168.934C83.6684 167.76 85.2289 166.565 86.7738 165.346C87.5831 164.708 88.3887 164.064 89.1906 163.415C89.5245 163.145 89.8521 162.861 90.1868 162.589C90.1055 162.479 90.0262 162.369 89.9494 162.26C88.6995 160.49 87.8885 158.379 87.4845 156.202C87.2405 154.888 87.1227 153.525 87.0868 152.185L87.0711 151.603C87.0464 150.621 87.0399 149.595 87.207 148.644C86.9796 148.779 86.7472 148.912 86.5156 149.054C85.6844 149.563 84.8525 150.071 84.0192 150.577C82.3507 151.59 80.6772 152.591 78.9824 153.551C75.9553 155.267 72.8984 156.899 69.759 158.362L68.2314 159.074C65.5802 160.308 62.9073 161.52 60.1508 162.437C58.596 162.954 57.0295 163.396 55.4524 163.79L56.0902 164.599C56.5227 165.147 56.5303 165.933 55.9776 166.394C55.4343 166.848 54.7053 166.659 54.3434 166.057L53.6836 164.959C53.5426 164.724 53.4625 164.504 53.4171 164.273C52.6907 164.437 51.9623 164.595 51.232 164.748L49.8513 165.033C47.8798 165.445 45.9683 166.26 44.2061 167.303C43.5935 167.666 43.4228 166.961 44.0719 166.47C45.9698 165.035 48.1836 164.222 50.4678 163.541L50.58 163.507C51.418 163.259 52.2545 163 53.0893 162.732C52.9975 162.373 52.9445 162 52.9551 161.589C52.9786 160.673 53.0534 159.754 53.0983 158.839C53.1927 156.919 53.313 155.005 53.454 153.088C53.5082 152.349 53.5689 151.609 53.6384 150.869C53.1907 150.609 52.8047 150.265 52.3056 150.095L52.2214 150.068C51.6876 149.913 51.8677 149.169 52.3419 149.105C52.7713 149.047 53.1988 149.074 53.6222 149.172C53.6878 149.188 53.7498 149.205 53.809 149.224C53.8868 148.539 53.9731 147.855 54.0711 147.176C54.3304 145.38 54.5139 143.488 55.0536 141.762C55.0936 141.634 55.269 141.589 55.334 141.723C56.1192 143.339 56.1465 145.321 56.235 147.121L56.246 147.336C56.3503 149.299 56.3562 151.281 56.3226 153.247C56.2881 155.273 56.2239 157.294 56.1399 159.319C56.1061 160.134 56.1075 160.979 55.9791 161.759C60.6516 160.115 65.2415 158.148 69.641 155.819C72.7444 154.177 75.8211 152.468 78.8627 150.695C80.3866 149.807 81.9178 148.933 83.4401 148.042C83.9735 147.729 84.5065 147.416 85.0392 147.102L85.8382 146.63C86.5859 146.189 87.21 145.75 88.0809 145.719C88.3405 145.709 88.5733 145.841 88.7386 146.04C89.2066 145.681 89.7475 145.461 90.3152 145.466C91.1698 144.189 92.0374 142.922 92.9395 141.683L93.606 140.766C94.7595 139.183 95.9814 137.577 97.4524 136.372C98.1089 135.835 98.831 135.431 99.5841 135.098C99.4069 135.051 99.2334 134.957 99.0788 134.802C98.3596 134.08 98.2605 132.74 98.1144 131.733C97.9628 130.689 98.0214 129.755 98.1711 128.714C98.2292 128.31 98.8484 128.225 98.9995 128.597C99.318 129.38 99.6553 130.131 99.9452 130.923L100.031 131.162C100.342 132.053 101.004 132.991 100.961 133.959C100.949 134.224 100.867 134.455 100.74 134.641C101.372 134.413 102.013 134.211 102.645 134C104.632 133.336 106.626 132.69 108.652 132.175C109.191 132.038 109.733 131.91 110.277 131.793C110.562 130.329 110.977 128.892 111.467 127.481C111.003 127.224 110.703 126.793 110.304 126.41C109.93 126.051 109.673 125.614 109.354 125.202C109.064 124.827 109.227 124.15 109.749 124.172L109.896 124.179C110.437 124.206 110.96 124.266 111.45 124.539L111.625 124.636C111.864 124.771 112.126 124.925 112.359 125.107C112.665 124.348 112.982 123.595 113.303 122.851L113.719 121.888C114.798 119.381 115.874 116.78 117.228 114.446C117.83 113.408 118.632 112.761 119.782 112.66C120.966 112.557 122.198 112.69 123.384 112.736C124.759 112.789 126.134 112.853 127.507 112.931C127.155 112.532 126.834 112.087 126.48 111.705C125.893 111.07 125.273 110.468 124.621 109.911C123.331 108.81 121.912 107.903 120.439 107.122C118.965 106.34 117.448 105.659 116.064 104.693C115.189 104.083 114.406 103.314 113.692 102.482C113.243 107.728 110.902 112.601 107.385 116.262C103.731 120.065 98.6831 122.154 93.7446 123.042C88.7074 123.949 83.4501 123.616 78.6313 121.722C76.1468 120.745 73.7638 119.35 71.6387 117.599C71.6153 117.752 71.5872 117.902 71.532 118.044C71.4579 118.234 71.3673 118.396 71.2634 118.563L71.0782 118.856C70.9613 119.04 70.8422 119.223 70.7096 119.393C70.3884 119.807 69.9333 119.989 69.4431 119.987C68.5046 119.983 67.7938 118.988 68.0464 118.003C68.2051 117.384 68.5447 117.012 69.0749 116.769C69.2425 116.693 69.4133 116.629 69.5851 116.565L69.714 116.518C69.8877 116.454 70.0599 116.393 70.2386 116.357C69.2323 115.396 68.2987 114.351 67.4626 113.224C64.8403 109.687 62.2538 104.735 63.1305 100.038C63.1457 99.9576 63.2127 99.9069 63.2851 99.8941C63.3359 99.5644 63.4981 99.2456 63.7202 99.0312C63.5707 98.9887 63.42 98.9559 63.2685 98.9333ZM90.4987 180.132C91.0181 179.82 91.5545 180.563 91.1325 181.021L90.5023 181.703C89.9175 182.339 89.3483 182.982 88.8477 183.706L88.7265 183.883C88.0508 184.878 87.3302 186.03 86.223 186.402C84.8838 186.852 83.5968 185.087 84.3723 183.797C85.0498 182.671 86.3544 182.246 87.479 181.78C88.543 181.339 89.5041 180.731 90.4987 180.132ZM47.2963 174.933C47.6015 174.501 48.3971 174.729 48.1886 175.34C47.5116 177.326 47.2356 180.034 45.5257 181.353C44.9741 181.779 44.1075 181.583 43.6533 181.092C43.1372 180.534 43.1166 179.747 43.4117 179.066C43.7717 178.235 44.6571 177.633 45.2777 177L45.3333 176.942C46.001 176.241 46.7231 175.745 47.2963 174.933ZM118.763 177.219C119.307 176.965 120.727 176.471 121.147 177.056C121.167 177.077 121.184 177.1 121.197 177.126C121.3 177.32 121.316 177.594 121.197 177.786C120.707 178.583 120.197 179.178 119.5 179.745L119.421 179.808C118.663 180.412 117.95 181.12 117.026 181.393C115.744 181.77 114.849 180.034 115.749 179.021C116.474 178.204 117.581 177.78 118.542 177.325L118.763 177.219ZM67.3061 165.872C67.0917 165.453 67.5297 164.939 67.9263 165.201C69.0577 165.949 70.3756 166.51 71.6464 166.913C72.1607 167.077 72.6247 167.641 72.5864 168.249L72.5804 168.341C72.5653 168.556 72.5379 168.77 72.4116 168.948C71.9691 169.575 71.3359 169.816 70.6598 169.445C69.1529 168.619 68.1215 167.466 67.3061 165.872ZM100.374 164.603C100.346 164.426 100.465 164.29 100.631 164.324C101.587 164.52 102.47 165.02 103.291 165.594C103.732 165.902 104.156 166.241 104.596 166.552C105.138 166.936 105.342 167.253 105.422 167.958C105.475 168.423 105.073 168.848 104.705 168.977C103.701 169.327 102.552 168.178 101.872 167.431L101.841 167.398C101.129 166.613 100.542 165.685 100.374 164.603ZM129.091 163.383C128.873 162.747 129.624 162.219 130.115 162.531C130.578 162.826 131.079 163.07 131.516 163.407C131.917 163.717 132.282 164.085 132.667 164.421L132.857 164.584C133.562 165.197 134.726 166.714 133.718 167.594C132.758 168.431 131.486 167.362 130.842 166.58L130.797 166.524C130.426 166.061 129.969 165.558 129.7 165.017C129.447 164.508 129.276 163.924 129.091 163.383ZM119.627 114.093C118.425 114.345 117.936 115.95 117.429 116.996C116.235 119.465 115.136 121.979 114.033 124.497C113.694 125.271 113.363 126.051 113.029 126.83C113.009 126.891 112.983 126.951 112.952 127.011C112.268 128.603 111.564 130.185 110.741 131.696C111.494 131.544 112.251 131.414 113.011 131.311C112.973 130.537 113.463 129.502 113.705 128.85L113.725 128.795C114.027 127.96 114.344 126.645 115.122 126.212C115.381 126.067 115.658 126.248 115.678 126.557C115.737 127.476 114.906 128.528 114.5 129.308C114.254 129.779 114.015 130.253 113.782 130.733C113.694 130.912 113.621 131.088 113.531 131.246C113.923 131.2 114.316 131.159 114.709 131.13L114.965 131.111C116.423 131.007 117.972 130.977 119.29 131.755C120.512 132.477 121.137 134.017 120.465 135.42C119.629 137.167 117.786 137.399 116.166 137.54C114.143 137.717 112.115 138.036 110.105 138.347C108.027 138.668 106.07 139.497 104.023 139.923C103.832 139.963 103.714 139.693 103.888 139.578C105.503 138.515 107.467 137.93 109.272 137.333L109.418 137.285C110.398 136.96 111.355 136.588 112.368 136.403C113.351 136.224 114.341 136.079 115.333 135.969L115.429 135.959C116.522 135.86 119.308 135.894 119.19 134.144C119.112 132.986 117.372 132.786 116.578 132.773C112.937 132.709 109.27 133.755 105.81 134.875L105.038 135.126C103.621 135.587 102.202 136.062 100.812 136.602C99.2362 137.215 97.995 138.17 96.8476 139.477C95.5753 140.927 94.3431 142.41 93.0232 143.81C92.1911 144.693 91.3484 145.561 90.4987 146.421C90.3068 146.69 90.1533 146.982 90.0469 147.362C89.8672 148.003 89.9086 148.598 89.9764 149.257C90.1475 150.919 90.1853 152.599 90.3997 154.256C90.5984 155.791 90.8763 157.383 91.4656 158.807C91.6989 159.371 92.0026 159.925 92.3484 160.421L92.6276 160.813C92.7492 160.984 92.8853 161.17 93.0282 161.346C93.238 161.069 93.5415 160.889 93.8942 160.934C94.6439 161.029 95.2331 161.007 95.9685 160.82C96.5377 160.676 97.1024 160.507 97.6691 160.351C98.7817 160.044 99.9047 159.765 101.006 159.412L101.195 159.35C102.016 159.078 102.837 158.737 103.52 158.163C104.314 157.497 104.558 156.536 105.146 155.705C106.401 153.931 109.114 153.968 110.951 153.482C112.511 153.069 114.014 152.417 115.094 151.192L115.157 151.119C115.109 150.9 115.187 150.654 115.374 150.54L115.415 150.516C115.488 150.471 115.567 150.453 115.645 150.455C115.745 150.295 115.842 150.131 115.93 149.956C116.002 149.812 116.183 149.918 116.159 150.06C116.145 150.145 116.125 150.229 116.107 150.312C117.153 150.021 118.302 150.076 119.364 150.077L120.743 150.072C120.982 150.069 121.337 150.056 121.369 150.04L121.401 150.024C121.487 149.984 121.365 150.051 121.425 149.965C121.492 149.869 121.556 149.773 121.62 149.676C121.849 149.33 122.065 148.974 122.277 148.614C119.968 149.251 117.577 149.647 115.219 149.977C112.69 150.331 110.128 150.577 107.576 150.58C106.873 150.581 106.879 149.432 107.576 149.403C110.278 149.291 112.966 149.136 115.65 148.762C117.037 148.568 118.419 148.325 119.794 148.04C120.324 147.931 120.854 147.814 121.382 147.691L121.777 147.598C122.026 147.538 122.727 147.453 123.069 147.204C123.137 147.079 123.204 146.955 123.271 146.83C123.238 146.391 122.207 146.45 121.966 146.449C121.281 146.448 120.595 146.454 119.91 146.456C118.54 146.46 117.17 146.447 115.799 146.435C113.061 146.411 110.313 146.308 107.577 146.434C106.913 146.465 106.564 145.313 107.221 145.01C110.118 143.671 113.335 143.38 116.429 142.969C118.056 142.752 119.684 142.503 121.275 142.065L121.668 141.957C122.667 141.68 123.771 141.342 124.612 140.681C123.347 140.128 121.775 140.191 120.464 140.113L120.364 140.106C118.529 139.984 116.69 139.922 114.851 139.919C111.088 139.913 107.323 140.058 103.565 140.251C103.47 140.255 103.451 140.094 103.543 140.073C107.406 139.161 111.332 138.721 115.286 138.654C117.127 138.622 118.969 138.65 120.809 138.739L121.484 138.772C123.053 138.845 124.793 138.865 126.106 139.89C126.306 140.046 126.411 140.246 126.428 140.457C128.188 136.661 129.813 132.786 131.446 128.936C132.714 125.943 133.936 122.925 135.251 119.955L135.677 118.995C136.247 117.713 136.831 116.431 137.479 115.195C135.054 114.844 132.616 114.601 130.176 114.415C127.952 114.245 120.698 113.868 119.627 114.093ZM118.554 155.231C118.83 155.065 119.254 155.2 119.322 155.569C119.373 155.844 119.459 156.149 119.459 156.43C119.459 156.767 119.348 157.132 119.289 157.462C119.152 158.219 118.984 158.835 118.628 159.509C118.406 159.931 117.956 160.218 117.504 160.207C117.146 160.198 116.829 160.094 116.583 159.794C116.289 159.435 116.087 158.907 116.248 158.424C116.671 157.157 117.448 155.895 118.554 155.231ZM59.8949 153.967C60.542 152.741 62.0759 151.645 63.4145 151.753C65.4245 151.916 65.8347 154.844 63.8887 155.543C62.7255 155.961 61.1252 155.532 60.1076 154.845C59.8333 154.659 59.7327 154.274 59.8949 153.967ZM39.2373 149.778C39.0903 149.547 39.3332 149.283 39.5522 149.335C40.038 149.45 40.5616 149.5 41.0374 149.657C41.5246 149.817 41.9962 150.083 42.4788 150.266C43.4898 150.649 44.5697 150.842 45.5482 151.304C45.9393 151.489 46.2469 152.102 46.2108 152.554L46.2015 152.659C46.1799 152.884 46.144 153.079 46.0281 153.284C45.7167 153.834 45.0998 154.118 44.5175 153.949C43.4373 153.635 42.3818 152.829 41.4608 152.159L41.2906 152.036C40.8882 151.75 40.4555 151.45 40.1312 151.081C39.7928 150.695 39.5146 150.214 39.2373 149.778ZM76.3691 145.318C76.2447 144.833 76.8019 144.513 77.1266 144.841C77.7756 145.495 78.4541 146.101 79.0896 146.772L79.1323 146.818C79.5874 147.312 80.2495 148.266 79.6576 148.906C78.8992 149.727 77.8431 148.509 77.4362 147.875C76.9201 147.07 76.6105 146.259 76.3691 145.318ZM126.029 141.312C125.066 142.415 123.583 142.923 122.277 143.343C120.728 143.841 119.133 144.138 117.536 144.383C115.993 144.619 114.462 144.83 112.943 145.102C114.092 145.117 115.24 145.126 116.386 145.148C117.708 145.174 119.029 145.205 120.351 145.247C121.313 145.277 122.442 145.134 123.357 145.521C123.521 145.591 123.675 145.687 123.81 145.805C124.579 144.326 125.316 142.826 126.029 141.312ZM66.6493 130.996C67.6541 130.651 68.5989 130.193 69.6641 130.312C69.9472 130.343 70.15 130.641 69.9954 130.936C69.4906 131.897 68.6698 132.44 67.8618 133.082L67.7905 133.139C66.9061 133.851 65.9565 134.5 64.9947 135.084C63.3388 136.089 61.8548 133.212 63.5271 132.367C64.5334 131.859 65.5904 131.36 66.6493 130.996ZM84.7393 128.498C86.2766 128.608 87.8129 128.682 89.352 128.749C91.1349 128.827 90.5355 131.795 89.0462 131.195C87.5749 130.601 86.1034 130.015 84.6188 129.462C84.1669 129.293 84.2033 128.49 84.7107 128.497L84.7393 128.498ZM45.3121 123.218C45.7105 123.188 46.1123 123.282 46.5113 123.324L46.9359 123.368C47.8111 123.462 48.6317 123.579 49.4663 123.964C51.0063 124.675 50.1792 127.353 48.6332 127.292C47.4905 127.247 46.5134 126.716 45.5485 126.097C44.705 125.557 44.1879 124.881 43.6182 124.033C43.4296 123.752 43.6925 123.437 43.9494 123.408C44.4019 123.359 44.8594 123.252 45.3121 123.218ZM122.51 117.748C122.255 119.469 121.623 121.081 120.67 122.485C120.191 123.19 119.35 123.217 118.875 122.485C118.203 121.449 118.618 120.262 119.123 119.268L119.273 118.976C119.5 118.54 119.848 117.902 120.245 117.462L120.252 117.417C120.465 115.616 122.773 115.976 122.51 117.748ZM60.3352 106.707C60.7184 106.334 61.4242 106.446 61.5485 107.054C61.7226 107.905 61.8285 108.864 61.7146 109.728C61.6528 110.196 61.6296 110.722 61.4594 111.158C61.2764 111.627 60.9245 111.988 60.5929 112.341C59.9308 113.045 58.5352 112.812 58.3579 111.703L58.3354 111.567C58.2462 111.041 58.1321 110.48 58.2642 109.96C58.3639 109.567 58.5867 109.167 58.771 108.802L58.8099 108.725C59.1791 107.981 59.7547 107.272 60.3352 106.707ZM114.203 108.518L114.341 108.52C115.411 108.542 117.366 108.824 117.377 110.254C117.379 110.591 117.149 110.94 116.839 111.018C116.2 111.178 115.787 110.77 115.331 110.357C114.958 110.019 114.524 109.749 114.073 109.555C113.585 109.346 113.617 108.517 114.203 108.518Z" fill="black"/>
<path fill-rule="evenodd" clip-rule="evenodd" d="M116.05 52.7876C115.498 48.0201 113.763 42.9582 111.939 38.5136C107.836 29.1163 98.4452 27.8224 90.0263 25.8849C81.7185 24.5764 72.9212 23.3948 64.7386 26.0056C60.1386 27.2248 58.3419 33.152 59.0679 37.8294C59.4822 40.7441 60.7085 43.5027 61.7542 46.2039C63.8326 51.7512 65.1513 57.6902 65.1536 63.6963C65.0109 67.6212 64.4988 72.1011 68.6679 73.7636C72.6351 75.898 72.9702 81.6839 77.9377 84.9666C79.9464 89.3685 85.4179 89.7559 89.356 90.777C91.845 91.2923 94.3621 91.6717 96.8861 91.9167C104.194 92.9298 110.041 90.6387 113.867 83.5952C116.427 79.3085 118.333 74.359 117.862 69.1638C117.393 63.693 116.612 58.2509 116.05 52.7876Z" fill="white"/>
<path fill-rule="evenodd" clip-rule="evenodd" d="M90.0894 14.464C90.5066 13.9525 91.1492 14.128 91.5393 14.5325C91.7932 14.6134 92.0393 14.7338 92.2717 14.8931C92.7968 14.8202 93.3474 14.8202 93.8625 14.8407C93.9874 14.7649 94.1213 14.6974 94.2671 14.6395C95.3085 14.2276 96.2307 14.4368 96.9913 14.9883C97.3577 14.6133 97.82 14.3779 98.4109 14.4135C98.9383 14.4454 99.314 14.7138 99.6361 15.0675C99.9573 14.5664 100.477 14.2089 101.123 14.1592C102.027 14.0897 102.897 14.4819 103.617 15.0892C104.037 14.5683 104.609 14.269 105.246 14.2661C105.666 14.1837 106.109 14.2162 106.509 14.3469C107.089 14.5366 107.599 14.8922 108.005 15.3536C108.648 14.6879 109.435 14.2089 110.341 14.2788C111.515 14.3705 112.488 15.3042 112.94 16.4534C113.735 16.7977 114.468 17.2887 115.081 17.9889C115.114 18.0257 115.145 18.0644 115.178 18.1032C115.508 18.235 115.819 18.4218 116.093 18.6679C116.96 19.4487 117.154 20.5786 116.866 21.6858C116.907 21.863 116.941 22.0432 116.972 22.2234C117.784 22.3569 118.522 22.8641 118.942 23.6898C119.516 24.8229 119.403 26.3163 118.781 27.3981C118.514 27.8634 118.174 28.2555 117.793 28.5983C118.224 29.6574 118.017 30.9212 117.323 31.7777C117.153 32.0731 116.945 32.3396 116.712 32.5809C116.97 33.6758 116.511 34.8056 115.594 35.3906L115.516 35.6029C115.503 35.6381 115.489 35.6733 115.475 35.708C115.465 35.7531 115.453 35.7967 115.44 35.8406C115.419 36.2292 115.3 36.6105 115.066 36.9697C114.585 37.7059 113.989 38.1861 113.673 39.0455L113.642 39.1358C113.506 39.5425 113.067 39.8295 112.694 39.704C114.768 44.3138 115.856 49.4431 116.603 54.47C116.975 56.9778 117.263 59.4942 117.496 62.0204L117.724 64.5359C117.926 66.772 118.104 69.0154 118.106 71.2588C118.109 76.3338 116.767 81.2152 113.887 85.2537C111.163 89.0713 107.308 91.838 102.954 92.9277C98.4579 94.0511 93.1841 93.6085 89.1525 91.0365C87.9638 90.2802 89.0052 88.4613 90.2147 89.0698C92.5042 90.2222 94.8309 91.0785 97.3689 91.27C99.8429 91.4582 102.323 91.1234 104.669 90.2478C108.55 88.7978 111.853 85.7607 113.976 81.9783C115.022 80.1143 115.779 78.0913 116.182 75.9537C116.684 73.2896 116.608 70.5358 116.424 67.8375L116.411 67.6536C116.047 62.4548 115.566 57.2238 114.79 52.0768C114.103 47.5252 113.048 43.0659 111.677 38.7053C111.141 38.1941 110.54 37.7711 109.898 37.4498C105.193 37.2372 100.479 37.2993 95.7801 37.6505C91.7726 37.952 87.7845 38.4621 83.8266 39.2054L83.4026 39.286C82.5264 39.4548 81.5534 39.5514 80.7278 39.933C80.0196 40.2613 79.7325 40.8923 79.554 41.6679C79.1047 43.6299 79.0363 45.7771 78.9604 47.789C78.886 49.7557 79.0541 51.7388 78.9083 53.699C78.7849 55.3391 78.3966 57.0178 77.2734 58.2042C76.6858 58.8253 75.9627 59.1649 75.2844 59.6365C74.8455 59.9409 74.6595 60.2546 74.7161 60.8179C74.8381 62.0508 75.756 63.6039 74.725 64.6598C74.5435 64.8449 74.2296 64.869 74.0511 64.6598C73.6256 64.1594 73.038 63.7778 72.5336 63.3738C72.3224 63.2066 72.4979 62.8814 72.7375 62.9972C73.0528 63.1502 73.3742 63.3305 73.703 63.4882C72.977 62.8412 71.9445 62.524 71.0847 62.3357C70.6517 62.2423 70.1965 62.2149 69.7457 62.2586C69.4125 62.4306 69.0718 62.5901 68.7312 62.7461C68.2982 62.9426 67.8609 63.1211 67.4205 63.2903C65.8927 64.6373 65.1637 66.828 65.4821 68.9702C65.6561 70.1531 66.1604 71.4392 67.1111 72.1297C68.2372 72.9473 69.7457 72.5963 70.9627 73.2032C72.1022 73.7712 72.7955 74.919 73.3147 76.1068L73.5311 76.6013C74.013 77.6963 74.5084 78.7621 75.1668 79.7586C75.9285 80.9127 76.8613 81.9492 77.8789 82.8394C78.3725 83.2702 78.8987 83.6578 79.4425 84.0107L79.5912 84.1061C80.1416 84.4554 80.5359 84.7884 80.573 85.5271C80.5849 85.7847 80.4347 86.0196 80.2413 86.1532C79.4082 86.7246 78.5796 86.01 77.8863 85.511C77.138 84.9735 76.4224 84.3684 75.7604 83.7085C74.5018 82.4563 73.4129 80.9691 72.5753 79.3546C71.9371 78.1251 71.5741 76.3949 70.5655 75.4421C69.9496 74.8609 69.0793 74.8562 68.3101 74.7498C67.5946 74.6502 66.9177 74.4892 66.2809 74.1078C63.6909 72.5514 62.959 68.7835 63.5734 65.8719C63.6775 65.3809 63.8233 64.9028 64.0033 64.4425C63.0393 64.6163 61.9563 63.5381 62.3475 62.4499C62.3773 62.3678 62.4115 62.2907 62.4442 62.2117C61.809 61.7594 61.3076 61.074 61.0696 60.1773C60.9476 59.7138 60.9298 59.2454 60.9937 58.7931C60.6858 58.5695 60.4314 58.262 60.2678 57.8837C59.756 57.6278 59.3023 57.2449 59.0315 56.6977C58.6566 55.9427 58.7042 55.2474 58.9898 54.6213C58.9497 54.5425 58.911 54.4621 58.8738 54.3798C57.825 53.6605 57.0931 52.421 57.1764 51.0465C57.2032 50.591 57.3073 50.1806 57.468 49.8106C57.4546 49.7639 57.4412 49.7155 57.4293 49.6688C56.5515 49.1859 55.8256 48.3926 55.5667 47.3335C55.3079 46.2679 55.6128 45.2056 56.2228 44.388C55.3302 43.6816 54.7931 42.6949 55.1189 41.2027C55.2513 40.5961 55.5176 40.0439 55.8776 39.5787C55.8761 39.5644 55.8732 39.5499 55.8702 39.5353L55.7867 39.4652C54.6848 38.5244 54.0513 37.3256 54.7277 35.8511C55.0311 35.1881 55.4641 34.7261 55.9728 34.4219L55.9981 34.3349C55.6337 33.4899 55.5102 32.5516 55.7616 31.565C55.9669 30.7523 56.4534 30.1051 57.0752 29.6756C57.0336 29.3117 57.0395 28.9239 57.1065 28.5037C57.218 27.794 57.5438 27.1744 58.0199 26.735C58.0377 26.6415 58.0601 26.5499 58.0853 26.458C58.246 25.8964 58.5465 25.2864 58.8946 24.834C59.1818 24.459 59.5031 24.3222 59.8958 24.3077C59.872 23.9618 59.8884 23.6108 59.9539 23.2551C60.1547 22.1575 60.8004 21.1257 61.7569 20.6573C62.1497 20.4658 62.5632 20.4096 62.9619 20.4561C63.3011 19.6835 63.9632 19.1236 64.7769 19.0029C65.0938 18.9546 65.3883 18.9576 65.6591 19.0013C65.8123 18.9239 65.9715 18.8548 66.1381 18.7919C66.2482 18.75 66.3598 18.7114 66.4714 18.6729C66.8478 18.1675 67.3431 17.7634 67.9219 17.5205C68.5898 17.2389 69.2697 17.2677 69.8722 17.5043L70.0641 17.4608C70.3646 16.8975 70.8436 16.4613 71.58 16.2633C72.4161 16.0396 73.2745 16.3518 73.9321 16.9202C73.935 16.9202 73.938 16.9202 73.9425 16.9184C74.2861 16.0863 74.8738 15.5069 75.8601 15.5471C76.4745 15.5728 77.0294 15.903 77.4579 16.3729C77.6959 16.3406 77.9339 16.3116 78.1734 16.2828C78.4263 15.9623 78.7075 15.6631 79.0184 15.3943C79.5272 14.9532 80.1892 14.9888 80.5641 15.6099C80.6459 15.7451 80.7218 15.8819 80.7977 16.0187L81.1413 15.9929C81.546 15.4022 82.0979 15.0031 82.8537 14.971C83.5469 14.9403 84.0408 15.3074 84.4172 15.8207C84.7237 15.8127 85.0316 15.8064 85.3396 15.8014C85.6981 15.3523 86.1206 14.9564 86.6026 14.6281C86.9715 14.377 87.516 14.4624 87.8151 14.7972C88.0171 15.0248 88.2051 15.2624 88.3799 15.5083C88.8305 14.9617 89.4392 14.6017 90.0894 14.464ZM68.1941 65.5741C68.8889 65.146 69.8231 65.6095 70.4955 65.9732C71.3153 66.4159 72.129 67.0838 72.6304 67.9207C73.3132 69.0603 71.708 69.9809 70.9895 68.9589C70.5476 68.3296 70.195 67.6954 69.6595 67.145C69.17 66.6396 68.4604 66.3016 68.1792 65.6352C68.1688 65.6127 68.1718 65.587 68.1941 65.5741ZM68.6826 37.9145L68.6956 37.8743C68.8931 37.2895 68.0309 37.0375 67.8349 37.6174C67.538 38.4963 67.8803 39.4519 68.6828 39.8314C68.9052 39.9367 69.1593 39.9002 69.2933 39.6582C69.4059 39.4546 69.3537 39.1018 69.1332 38.9977C68.6817 38.7841 68.5305 38.4071 68.6826 37.9145ZM61.2535 36.2794C61.6851 35.8674 61.0517 35.1864 60.6223 35.5967C60.2215 35.9794 59.9242 36.4993 60.0014 37.0972C60.0801 37.7066 60.5049 38.1368 60.9698 38.4408C61.4625 38.7632 61.9116 37.9285 61.4202 37.607L61.365 37.5704C61.1588 37.4318 60.9174 37.2413 60.8824 36.9686C60.8454 36.6789 61.072 36.4528 61.2535 36.2794ZM63.7042 29.009L63.7348 28.9846C64.1984 28.6267 63.7531 27.7888 63.2842 28.1507C62.8543 28.4828 62.5094 28.9141 62.4731 29.509C62.4379 30.0872 62.7098 30.5884 63.0654 30.9951C63.4609 31.4475 64.0914 30.7638 63.6966 30.3123C63.3119 29.8723 63.2367 29.3922 63.7042 29.009Z" fill="black"/>
<path fill-rule="evenodd" clip-rule="evenodd" d="M106.031 76.4067C106.135 76.3764 106.225 76.5264 106.14 76.6085C105.79 76.9447 105.567 77.5712 105.312 77.9982C105.069 78.4044 104.834 78.8065 104.621 79.2317C104.381 79.7083 104.149 80.1831 103.963 80.6873L103.926 80.7891C103.982 80.9329 104.025 81.0749 104.058 81.1679L104.067 81.1943C104.386 82.0747 103.717 83.0532 102.962 83.2993C101.672 83.7201 100.565 82.5737 100.534 81.2103C100.51 80.1377 101.182 79.182 101.865 78.473C102.462 77.8528 103.131 77.3249 103.879 76.9381C104.209 76.7677 104.552 76.6251 104.91 76.5424C105.277 76.4579 105.672 76.5116 106.031 76.4067ZM103.6 80.2937C103.694 80.3419 103.775 80.4599 103.843 80.5977C103.809 80.4808 103.739 80.3646 103.6 80.2937ZM104.407 65.3906C105.53 66.1294 107.242 67.8521 106.034 69.6836C104.611 71.2985 102.563 69.4469 101.554 68.6095C100.618 67.9605 99.5663 69.6297 100.435 70.3875C107.728 76.2293 110.687 65.5838 104.975 64.522C104.346 64.405 104.113 65.1621 104.407 65.3906ZM95.1724 58.2967L95.3709 58.2787C96.2318 58.1966 97.1035 58.0715 97.9526 58.2823C99.0932 58.5655 99.0096 60.3608 97.9526 60.6909C97.021 60.9817 95.9887 60.8559 95.027 60.8659C94.8758 60.8675 94.7248 60.8716 94.5736 60.8744C94.5439 61.2634 94.4259 61.5988 94.2453 61.9339C94.1158 62.1744 93.9507 62.4028 93.7883 62.6164C93.4021 63.124 92.4912 63.1126 92.1014 62.6164C91.8131 62.2491 91.5835 61.8266 91.5798 61.3294C91.5789 61.2021 91.5932 61.0669 91.6213 60.9339L91.0964 60.9439C89.8118 60.9651 88.5174 60.9556 87.256 60.7348C86.8073 60.8353 86.4402 59.9594 87.0595 59.6972C88.7431 58.9848 90.624 58.7751 92.4105 58.5612C93.3286 58.4511 94.2517 58.3753 95.1724 58.2967ZM109.515 57.5606L109.561 57.5557C110.675 57.4322 111.903 57.2185 113.02 57.3414C114.686 57.5247 114.684 59.9625 113.02 60.1449C112.409 60.2118 111.765 60.1793 111.123 60.1153C111.452 60.8682 111.062 61.7674 110.272 61.8823C109.537 61.9891 108.776 61.2169 109.017 60.3886L109.028 60.352C109.075 60.2083 109.118 60.0477 109.168 59.8891L108.902 59.8649C108.107 59.7889 107.005 59.6337 106.712 58.955C106.624 58.7504 106.644 58.5605 106.78 58.3857C107.337 57.6684 108.71 57.6448 109.515 57.5606ZM97.668 51.9791C98.4743 51.6622 99.3123 52.4039 99.4169 53.2397C99.5373 54.2029 98.8952 54.837 98.0813 54.952L98.0405 54.9574C96.244 55.1714 94.461 55.5629 92.6621 55.7842C91.8451 55.8845 91.0219 55.9506 90.1994 55.9744L89.6117 55.9886C88.8914 56.0083 88.1188 56.0261 87.4539 55.7578L87.4564 55.7529C87.2798 55.6976 87.1986 55.422 87.3951 55.2714C88.1031 54.7298 89.0574 54.525 89.8816 54.2677C90.7103 54.0087 91.545 53.77 92.382 53.5458C94.1395 53.0755 95.9652 52.6484 97.668 51.9791ZM105.105 52.2043C105.318 50.9857 106.914 50.855 107.5 51.7417C107.879 51.8824 108.434 52.0292 108.778 52.1396C109.378 52.3319 109.978 52.5231 110.579 52.7084C111.824 53.0921 113.039 53.5785 114.263 54.0319C114.39 54.0787 114.355 54.2519 114.234 54.2691C112.525 54.5097 110.845 54.6217 109.126 54.5445L108.774 54.5273C107.259 54.4635 104.687 54.5853 105.105 52.2043Z" fill="black"/>
<path fill-rule="evenodd" clip-rule="evenodd" d="M107.558 83.4078C106.172 82.0724 104.619 79.3878 102.629 81.512C102.137 82.1122 101.937 83.4577 101.185 83.7217C100.185 84.0726 99.1942 82.9282 98.8535 82.0494C97.4595 77.1666 103.222 75.8274 106.505 76.6162C108.108 77.3287 109.29 80.1969 109.361 81.6937C109.407 82.6997 108.62 84.1788 107.558 83.4078ZM118.01 75.8818C117.997 75.817 117.978 75.7584 117.955 75.7051C117.342 75.4545 116.858 75.7101 116.558 76.1875C116.568 76.3061 116.6 76.4263 116.621 76.544C116.39 77.0709 116.181 77.723 115.868 78.1783C115.806 78.1834 115.742 78.1764 115.68 78.157C110.487 78.7439 113.022 72.8645 107.754 71.4042C103.682 70.6773 96.3219 71.5099 94.4009 76.0956C92.8858 83.4202 85.1822 78.3164 82.6529 74.5071C79.9541 71.0404 78.209 66.8042 76.5265 62.6935C76.1709 61.8235 75.0613 62.4456 75.1819 63.2803C73.6267 66.6556 73.6785 70.71 73.2933 74.4077C72.6381 81.7849 71.9998 92.1305 78.3353 96.6351C86.59 106.729 107.203 110.292 116.724 101.017C120.02 93.3505 119.613 83.9981 118.01 75.8818Z" fill="black"/>
</g>
<defs>
<clipPath id="clip0">
<rect width="169" height="198" fill="white"/>
</clipPath>
</defs>
</svg>
